<?xml version="1.0" encoding="UTF-8"?>
<svg xmlns="http://www.w3.org/2000/svg" width="240mm" height="135mm" viewBox="0 0 160 90">
  <title>Yacht vector outline with numbers at the 160 px quality stage</title>
  <metadata>Static uImage v0.2.28 comparison at the 160 px quality stage</metadata>
  <g id="fills">
    <path id="region-1" d="M0 32L0 0L160 0L160 5L157 5L157 6L155 6L155 7L153 7L153 8L152 8L152 10L151 10L151 11L149 11L149 12L145 12L145 9L146 9L146 7L148 7L148 4L147 4L147 5L145 5L145 4L144 4L144 5L141 5L141 7L140 7L140 8L135 8L135 9L132 9L132 10L131 10L131 11L128 11L128 12L125 12L125 11L122 11L122 10L120 10L120 9L116 9L116 10L115 10L115 11L114 11L114 12L113 12L113 10L114 10L114 9L115 9L115 8L114 8L114 7L113 7L113 8L112 8L112 9L109 9L109 10L108 10L108 9L107 9L107 10L106 10L106 11L105 11L104 11L104 10L102 10L102 9L103 9L103 6L102 6L102 7L100 7L100 6L99 6L99 7L97 7L97 8L96 8L96 9L95 9L95 10L94 10L94 13L93 13L93 16L91 16L91 15L90 15L90 14L88 14L88 15L87 15L87 11L86 11L86 15L85 15L85 16L84 16L83 16L83 13L81 13L81 12L81 10L82 10L82 9L83 9L83 6L80 6L80 4L79 4L79 5L78 5L78 6L77 6L77 7L76 7L76 6L75 6L75 4L74 4L74 3L72 3L72 4L71 4L71 6L68 6L66 6L66 5L64 5L64 4L63 4L63 3L62 3L62 4L60 4L60 3L59 3L58 3L58 2L55 2L55 3L54 3L54 2L52 2L52 4L49 4L49 5L46 5L46 7L45 7L45 8L46 8L46 12L44 12L44 13L41 13L41 14L37 14L37 15L34 15L34 16L32 16L32 19L30 19L30 17L27 17L27 18L23 18L23 19L21 19L21 20L19 20L19 21L18 21L18 22L15 22L15 23L13 23L13 24L12 24L12 25L10 25L10 26L8 26L8 27L7 27L7 29L6 29L6 27L5 27L5 28L4 28L4 29L3 29L3 31L2 31L2 32L0 32ZM123 4L123 6L124 6L124 7L126 7L126 4L123 4Z" fill="#b6c1d4" fill-rule="evenodd"/>
    <path id="region-2" d="M4 29L4 28L5 28L5 27L6 27L6 29L7 29L7 27L8 27L8 26L10 26L10 25L12 25L12 24L13 24L13 23L15 23L15 22L18 22L18 21L19 21L19 20L21 20L21 19L23 19L23 18L27 18L27 17L30 17L30 19L32 19L32 16L34 16L34 15L37 15L37 14L41 14L41 13L44 13L44 12L46 12L46 8L45 8L45 7L46 7L46 5L49 5L49 4L52 4L52 2L54 2L54 3L55 3L55 2L58 2L58 3L59 3L59 5L61 5L61 6L63 6L63 5L64 5L66 5L66 6L68 6L68 7L66 7L66 11L65 11L65 14L66 14L66 12L68 12L68 11L70 11L70 10L71 10L71 9L77 9L80 9L80 10L81 10L81 12L80 12L80 13L79 13L79 14L78 14L78 15L77 15L77 16L76 16L76 17L75 17L75 18L74 18L74 20L73 20L73 21L72 21L72 23L71 23L71 24L70 24L70 26L69 26L69 28L68 28L68 30L67 30L67 33L66 33L66 38L65 38L65 40L62 40L62 39L60 39L60 38L55 38L55 39L54 39L54 38L46 38L46 35L47 35L47 34L48 34L48 33L49 33L49 32L50 32L50 30L51 30L51 23L50 23L50 24L46 24L46 25L45 25L45 28L42 28L42 29L37 29L37 30L34 30L34 29L31 29L31 30L30 30L30 31L28 31L28 28L26 28L26 25L25 25L25 24L24 24L24 23L22 23L22 22L19 22L19 23L16 23L16 25L15 25L15 26L16 26L16 31L15 31L15 32L14 32L14 34L13 34L13 35L12 35L12 37L11 37L11 36L7 36L7 35L5 35L5 33L4 33L4 31L6 31L6 30L5 30L5 29L4 29ZM31 21L31 22L29 22L29 24L33 24L33 22L34 22L34 21L31 21Z" fill="#f6f7f7" fill-rule="evenodd"/>
    <path id="region-3" d="M59 3L60 3L60 4L62 4L62 3L63 3L63 4L64 4L64 5L63 5L63 6L61 6L61 5L59 5L59 3Z" fill="#fbe3c4" fill-rule="evenodd"/>
    <path id="region-4" d="M68 6L71 6L71 4L72 4L72 3L74 3L74 4L75 4L75 6L76 6L76 7L77 7L77 8L75 8L75 7L74 7L74 6L72 6L72 7L68 7L68 6Z" fill="#d5c1ba" fill-rule="evenodd"/>
    <path id="region-5" d="M77 7L77 6L78 6L78 5L79 5L79 4L80 4L80 6L80 7L79 7L79 8L77 8L77 7Z" fill="#fbe3c4" fill-rule="evenodd"/>
    <path id="region-6" d="M123 4L126 4L126 7L124 7L124 6L123 6L123 4Z" fill="#d5c1ba" fill-rule="evenodd"/>
    <path id="region-7" d="M122 11L125 11L125 12L128 12L128 11L131 11L131 10L132 10L132 9L135 9L135 8L140 8L140 7L141 7L141 5L144 5L144 4L145 4L145 5L147 5L147 4L148 4L148 7L146 7L146 9L145 9L145 12L149 12L149 11L151 11L152 11L152 12L150 12L150 13L149 13L149 14L148 14L147 14L147 15L144 15L144 17L144 18L142 18L142 19L140 19L140 18L141 18L141 17L139 17L139 18L138 18L137 18L137 17L136 17L136 16L137 16L137 15L135 15L135 16L133 16L133 17L134 17L134 18L131 18L131 17L129 17L129 16L130 16L130 14L129 14L129 13L126 13L126 14L127 14L127 15L128 15L128 16L127 16L127 17L126 17L126 18L127 18L127 20L122 20L122 19L121 19L121 16L123 16L123 15L124 15L124 14L125 14L125 13L124 13L124 12L122 12L122 11Z" fill="#d5c1ba" fill-rule="evenodd"/>
    <path id="region-8" d="M160 5L160 6L158 6L158 7L159 7L159 9L158 9L158 10L157 10L157 11L160 11L160 19L158 19L158 18L156 18L156 19L154 19L154 18L152 18L152 17L153 17L153 16L154 16L154 15L155 15L155 14L157 14L157 12L153 12L153 11L152 11L151 11L151 10L152 10L152 8L153 8L153 7L155 7L155 6L157 6L157 5L160 5Z" fill="#fbe3c4" fill-rule="evenodd"/>
    <path id="region-9" d="M77 9L71 9L71 10L70 10L70 11L68 11L68 12L66 12L66 14L65 14L65 11L66 11L66 7L68 7L72 7L72 6L74 6L74 7L75 7L75 8L77 8L77 9Z" fill="#fbe3c4" fill-rule="evenodd"/>
    <path id="region-10" d="M80 6L83 6L83 9L82 9L82 10L81 10L80 10L80 9L77 9L77 8L79 8L79 7L80 7L80 6Z" fill="#d5c1ba" fill-rule="evenodd"/>
    <path id="region-11" d="M96 9L96 8L97 8L97 7L99 7L99 6L100 6L100 7L102 7L102 6L103 6L103 9L102 9L102 10L101 10L101 8L98 8L98 9L96 9Z" fill="#d5c1ba" fill-rule="evenodd"/>
    <path id="region-12" d="M160 6L160 11L157 11L157 10L158 10L158 9L159 9L159 7L158 7L158 6L160 6Z" fill="#f0ba97" fill-rule="evenodd"/>
    <path id="region-13" d="M105 11L106 11L106 10L107 10L107 9L108 9L108 10L109 10L109 9L112 9L112 8L113 8L113 7L114 7L114 8L115 8L115 9L114 9L114 10L113 10L113 12L114 12L114 11L115 11L115 10L116 10L116 9L120 9L120 10L122 10L122 11L120 11L120 12L119 12L119 13L120 13L120 14L113 14L113 13L111 13L111 10L110 10L110 11L109 11L109 13L108 13L108 14L105 14L105 13L104 13L104 12L105 12L105 11Z" fill="#d5c1ba" fill-rule="evenodd"/>
    <path id="region-14" d="M94 13L94 10L95 10L95 9L96 9L98 9L98 8L101 8L101 10L102 10L104 10L104 11L105 11L105 12L104 12L104 13L105 13L105 14L108 14L108 13L109 13L109 11L110 11L110 10L111 10L111 13L113 13L113 14L120 14L120 13L119 13L119 12L120 12L120 11L122 11L122 12L124 12L124 13L125 13L125 14L124 14L124 15L123 15L123 16L121 16L121 19L122 19L122 20L127 20L127 18L126 18L126 17L127 17L127 16L128 16L128 15L127 15L127 14L126 14L126 13L129 13L129 14L130 14L130 16L129 16L129 17L131 17L131 18L134 18L134 17L133 17L133 16L135 16L135 15L137 15L137 16L136 16L136 17L137 17L137 18L138 18L138 19L139 19L139 20L138 20L138 21L139 21L139 23L140 23L140 21L141 21L141 20L142 20L142 21L143 21L143 23L141 23L141 24L140 24L140 25L137 25L137 26L136 26L136 27L135 27L135 26L134 26L134 28L133 28L133 29L132 29L132 28L127 28L127 29L125 29L125 31L124 31L124 32L122 32L122 33L121 33L121 32L120 32L120 34L119 34L119 35L121 35L121 37L118 37L118 38L115 38L115 39L114 39L114 40L113 40L113 41L109 41L109 42L105 42L105 43L102 43L102 42L101 42L101 45L100 45L100 43L99 43L99 39L98 39L98 35L97 35L97 31L96 31L96 26L95 26L95 24L96 24L96 25L98 25L98 26L97 26L97 27L98 27L98 29L99 29L99 30L100 30L100 31L101 31L101 32L99 32L99 33L102 33L102 32L103 32L103 31L104 31L104 30L105 30L105 27L104 27L104 23L105 23L105 22L104 22L104 21L101 21L101 22L98 22L98 23L96 23L96 22L95 22L95 23L94 23L94 24L92 24L92 26L91 26L91 28L90 28L90 27L89 27L89 22L88 22L88 26L87 26L87 27L86 27L86 28L85 28L85 29L83 29L83 26L84 26L84 22L85 22L85 21L87 21L88 21L88 16L91 16L91 17L93 17L93 18L94 18L94 16L95 16L95 14L94 14L94 13ZM112 15L112 17L111 17L111 18L110 18L110 19L112 19L112 20L114 20L114 16L115 16L115 15L112 15Z" fill="#fbe3c4" fill-rule="evenodd"/>
    <path id="region-15" d="M84 16L85 16L85 15L86 15L86 11L87 11L87 15L88 15L88 14L90 14L90 15L91 15L91 16L88 16L88 21L87 21L87 17L86 17L86 18L83 18L83 17L84 17L84 16Z" fill="#d5c1ba" fill-rule="evenodd"/>
    <path id="region-16" d="M148 14L149 14L149 13L150 13L150 12L152 12L152 11L153 11L153 12L157 12L157 14L155 14L155 15L154 15L154 16L153 16L153 17L152 17L151 17L151 16L149 16L149 15L148 15L148 14Z" fill="#f6f7f7" fill-rule="evenodd"/>
    <path id="region-17" d="M81 12L81 13L81 14L80 14L80 15L79 15L79 16L78 16L78 18L77 18L77 20L76 20L76 23L75 23L75 27L74 27L73 27L72 27L72 30L71 30L71 35L72 35L72 37L70 37L70 38L69 38L69 39L68 39L68 40L69 40L69 42L68 42L68 41L67 41L67 42L66 42L66 38L66 33L67 33L67 30L68 30L68 28L69 28L69 26L70 26L70 24L71 24L71 23L72 23L72 21L73 21L73 20L74 20L74 18L75 18L75 17L76 17L76 16L77 16L77 15L78 15L78 14L79 14L79 13L80 13L80 12L81 12Z" fill="#d5c1ba" fill-rule="evenodd"/>
    <path id="region-18" d="M81 13L83 13L83 16L84 16L84 17L83 17L83 18L86 18L86 17L87 17L87 21L85 21L85 22L84 22L84 26L83 26L83 29L85 29L85 28L86 28L86 27L87 27L87 26L88 26L88 28L89 28L89 31L87 31L87 32L88 32L88 35L82 35L82 36L80 36L80 37L75 37L75 36L75 34L74 34L74 27L75 27L75 23L76 23L76 20L77 20L77 18L78 18L78 16L79 16L79 15L80 15L80 14L81 14L81 13Z" fill="#f6f7f7" fill-rule="evenodd"/>
    <path id="region-19" d="M91 16L93 16L93 13L94 13L94 14L95 14L95 16L94 16L94 18L93 18L93 17L91 17L91 16Z" fill="#f6f7f7" fill-rule="evenodd"/>
    <path id="region-20" d="M144 17L144 15L147 15L147 14L148 14L148 15L149 15L149 16L148 16L148 17L144 17Z" fill="#fbe3c4" fill-rule="evenodd"/>
    <path id="region-21" d="M112 15L115 15L115 16L114 16L114 20L112 20L112 19L110 19L110 18L111 18L111 17L112 17L112 15Z" fill="#d5c1ba" fill-rule="evenodd"/>
    <path id="region-22" d="M160 19L160 20L158 20L158 21L154 21L154 22L153 22L153 23L151 23L151 24L150 24L150 23L148 23L148 22L151 22L151 19L144 19L144 23L143 23L143 21L142 21L142 20L141 20L141 21L140 21L140 23L139 23L139 21L138 21L138 20L139 20L139 19L138 19L138 18L139 18L139 17L141 17L141 18L140 18L140 19L142 19L142 18L144 18L144 17L148 17L148 16L149 16L151 16L151 17L152 17L152 18L154 18L154 19L156 19L156 18L158 18L158 19L160 19Z" fill="#f0ba97" fill-rule="evenodd"/>
    <path id="region-23" d="M160 20L160 26L154 26L154 24L152 24L152 25L150 25L150 27L148 27L148 26L144 26L144 25L145 25L145 24L143 24L143 23L144 23L144 19L151 19L151 22L148 22L148 23L150 23L150 24L151 24L151 23L153 23L153 22L154 22L154 21L158 21L158 20L160 20Z" fill="#fbe3c4" fill-rule="evenodd"/>
    <path id="region-24" d="M31 21L34 21L34 22L33 22L33 24L29 24L29 22L31 22L31 21Z" fill="#b6c1d4" fill-rule="evenodd"/>
    <path id="region-25" d="M95 23L95 22L96 22L96 23L98 23L98 22L101 22L101 21L104 21L104 22L105 22L105 23L104 23L104 27L105 27L105 30L104 30L104 31L103 31L103 32L102 32L102 33L99 33L99 32L101 32L101 31L100 31L100 30L99 30L99 29L98 29L98 27L97 27L97 26L98 26L98 25L96 25L96 24L95 24L95 23Z" fill="#f6f7f7" fill-rule="evenodd"/>
    <path id="region-26" d="M0 36L0 32L2 32L2 31L3 31L3 29L4 29L5 29L5 30L6 30L6 31L4 31L4 33L5 33L5 35L7 35L7 36L11 36L11 37L12 37L12 35L13 35L13 34L14 34L14 32L15 32L15 31L16 31L16 26L15 26L15 25L16 25L16 23L19 23L19 22L22 22L22 23L24 23L24 24L25 24L25 25L26 25L26 28L28 28L28 31L30 31L30 30L31 30L31 29L34 29L34 30L37 30L37 29L42 29L42 28L45 28L45 29L44 29L44 30L43 30L43 32L42 32L42 34L41 34L41 35L40 35L40 36L39 36L39 38L38 38L38 40L37 40L37 42L38 42L38 45L36 45L36 46L37 46L37 48L39 48L39 50L40 50L40 52L38 52L38 51L37 51L37 50L32 50L32 49L30 49L30 47L28 47L28 46L26 46L26 45L23 45L23 43L22 43L22 42L18 42L18 43L17 43L17 42L15 42L15 43L14 43L14 42L9 42L9 40L8 40L8 37L5 37L5 36L0 36Z" fill="#d5c1ba" fill-rule="evenodd"/>
    <path id="region-27" d="M88 26L88 22L89 22L89 27L90 27L90 28L91 28L91 26L92 26L92 24L94 24L94 29L93 29L93 30L94 30L94 33L93 33L93 41L92 41L92 42L93 42L93 43L92 43L92 44L93 44L93 45L94 45L94 46L95 46L95 47L96 47L96 49L95 49L95 48L94 48L94 47L93 47L93 46L92 46L92 45L91 45L91 37L90 37L90 32L91 32L91 30L90 30L90 31L89 31L89 28L88 28L88 26Z" fill="#d5c1ba" fill-rule="evenodd"/>
    <path id="region-28" d="M45 28L45 25L46 25L46 24L50 24L50 23L51 23L51 30L50 30L50 32L49 32L49 33L48 33L48 34L47 34L47 35L46 35L46 38L54 38L54 39L55 39L55 38L60 38L60 39L62 39L62 40L65 40L65 38L66 38L66 42L65 42L65 44L64 44L64 46L63 46L63 47L62 47L62 45L61 45L61 44L60 44L60 48L58 48L58 47L51 47L51 46L49 46L49 47L48 47L48 46L43 46L43 45L40 45L40 44L39 44L39 45L38 45L38 42L37 42L37 40L38 40L38 38L39 38L39 36L40 36L40 35L41 35L41 34L42 34L42 32L43 32L43 30L44 30L44 29L45 29L45 28Z" fill="#fbe3c4" fill-rule="evenodd"/>
    <path id="region-29" d="M160 26L160 36L158 36L158 37L154 37L154 36L155 36L155 35L157 35L157 34L153 34L153 35L151 35L151 36L149 36L149 35L148 35L148 36L145 36L145 37L142 37L142 38L141 38L141 37L140 37L140 38L138 38L138 39L135 39L135 40L134 40L134 41L132 41L132 42L129 42L129 43L130 43L130 45L131 45L131 44L132 44L132 43L133 43L133 44L137 44L137 43L138 43L138 45L137 45L137 46L136 46L136 47L135 47L135 48L133 48L133 50L132 50L132 51L131 51L131 50L130 50L130 52L128 52L128 53L127 53L127 54L124 54L124 55L120 55L120 56L119 56L119 55L118 55L118 56L116 56L116 57L114 57L114 58L110 58L110 56L107 56L107 54L106 54L106 55L105 55L104 55L104 54L105 54L105 53L104 53L104 52L103 52L103 51L100 51L100 49L99 49L99 52L97 52L97 53L96 53L96 52L96 51L97 51L97 49L96 49L96 47L96 42L95 42L95 38L94 38L94 37L95 37L95 36L94 36L94 33L94 30L93 30L93 29L94 29L94 24L94 23L95 23L95 24L95 26L96 26L96 31L97 31L97 35L98 35L98 39L99 39L99 43L100 43L100 45L101 45L101 42L102 42L102 43L105 43L105 42L109 42L109 41L113 41L113 40L114 40L114 39L115 39L115 38L118 38L118 37L121 37L121 35L119 35L119 34L120 34L120 32L121 32L121 33L122 33L122 32L124 32L124 31L125 31L125 29L127 29L127 28L132 28L132 29L133 29L133 28L134 28L134 26L135 26L135 27L136 27L136 26L137 26L137 25L140 25L140 24L141 24L141 23L143 23L143 24L145 24L145 25L144 25L144 26L148 26L148 27L150 27L150 25L152 25L152 24L154 24L154 26L160 26Z" fill="#f0ba97" fill-rule="evenodd"/>
    <path id="region-30" d="M66 42L67 42L67 41L68 41L68 42L69 42L69 40L68 40L68 39L69 39L69 38L70 38L70 37L72 37L72 35L71 35L71 30L72 30L72 27L73 27L73 37L74 37L74 42L75 42L75 45L76 45L76 50L75 50L75 49L74 49L74 48L70 48L70 47L68 47L68 46L71 46L71 44L69 44L69 43L66 43L66 42Z" fill="#fbe3c4" fill-rule="evenodd"/>
    <path id="region-31" d="M73 27L74 27L74 34L75 34L75 36L74 36L74 37L73 37L73 27Z" fill="#9da58f" fill-rule="evenodd"/>
    <path id="region-32" d="M75 37L80 37L80 36L82 36L82 35L88 35L88 32L87 32L87 31L89 31L90 31L90 30L91 30L91 32L90 32L90 37L91 37L91 45L92 45L92 46L93 46L93 47L94 47L94 48L95 48L95 49L95 50L93 50L93 51L90 51L90 50L79 50L79 49L78 49L78 46L77 46L77 43L76 43L76 39L75 39L75 37Z" fill="#fbe3c4" fill-rule="evenodd"/>
    <path id="region-33" d="M96 47L95 47L95 46L94 46L94 45L93 45L93 44L92 44L92 43L93 43L93 42L92 42L92 41L93 41L93 33L94 33L94 36L95 36L95 37L94 37L94 38L95 38L95 42L96 42L96 47Z" fill="#fbe3c4" fill-rule="evenodd"/>
    <path id="region-34" d="M160 36L160 54L154 54L154 55L148 55L148 56L140 56L140 57L131 57L131 58L126 58L119 58L119 59L109 59L109 58L110 58L114 58L114 57L116 57L116 56L118 56L118 55L119 55L119 56L120 56L120 55L124 55L124 54L127 54L127 53L128 53L128 52L130 52L130 50L131 50L131 51L132 51L132 50L133 50L133 48L135 48L135 47L136 47L136 46L137 46L137 45L138 45L138 43L137 43L137 44L133 44L133 43L132 43L132 44L131 44L131 45L130 45L130 43L129 43L129 42L132 42L132 41L134 41L134 40L135 40L135 39L138 39L138 38L140 38L140 37L141 37L141 38L142 38L142 37L145 37L145 36L148 36L148 35L149 35L149 36L151 36L151 35L153 35L153 34L157 34L157 35L155 35L155 36L154 36L154 37L158 37L158 36L160 36Z" fill="#d9987d" fill-rule="evenodd"/>
    <path id="region-35" d="M0 59L0 36L5 36L5 37L8 37L8 40L9 40L9 42L14 42L14 43L15 43L15 42L17 42L17 43L18 43L18 42L22 42L22 43L23 43L23 45L26 45L26 46L28 46L28 47L30 47L30 49L32 49L32 50L37 50L37 51L38 51L38 52L40 52L40 53L40 54L41 54L41 55L42 55L42 56L41 56L41 57L34 57L34 58L32 58L32 61L32 62L33 62L33 64L29 64L28 64L28 63L29 63L29 62L27 62L27 64L26 64L26 63L24 63L24 62L22 62L22 63L21 63L21 62L17 62L17 61L16 61L16 60L11 60L11 61L10 61L10 60L8 60L8 61L7 61L7 60L6 60L6 61L5 61L5 60L3 60L3 61L2 61L2 59L0 59Z" fill="#b39898" fill-rule="evenodd"/>
    <path id="region-36" d="M75 36L75 37L75 39L76 39L76 43L77 43L77 46L78 46L78 49L79 49L79 50L76 50L76 45L75 45L75 42L74 42L74 37L74 36L75 36Z" fill="#528c7a" fill-rule="evenodd"/>
    <path id="region-37" d="M64 46L64 44L65 44L65 42L66 42L66 43L69 43L69 44L71 44L71 46L68 46L67 46L67 45L66 45L66 46L64 46Z" fill="#d5c1ba" fill-rule="evenodd"/>
    <path id="region-38" d="M40 52L40 50L39 50L39 48L37 48L37 46L36 46L36 45L38 45L39 45L39 44L40 44L40 45L43 45L43 46L48 46L48 47L49 47L49 46L51 46L51 47L58 47L58 48L60 48L60 44L61 44L61 45L62 45L62 47L63 47L63 46L64 46L66 46L66 47L67 47L67 48L64 48L64 49L63 49L63 50L65 50L65 51L68 51L68 52L71 52L71 53L74 53L74 54L76 54L76 55L78 55L78 56L76 56L76 58L78 58L78 60L79 60L79 61L80 61L80 62L81 62L81 63L84 63L85 63L85 64L86 64L86 66L84 66L84 65L79 65L79 66L76 66L76 67L75 67L75 68L69 68L69 69L66 69L66 70L67 70L67 72L69 72L69 73L70 73L70 75L65 75L65 76L66 76L66 77L64 77L64 78L62 78L62 80L58 80L58 78L57 78L57 77L56 77L56 76L61 76L61 75L60 75L60 74L58 74L58 72L56 72L56 71L54 71L54 72L53 72L53 70L51 70L51 71L49 71L49 69L50 69L50 68L49 68L49 67L48 67L48 66L49 66L49 65L52 65L52 64L51 64L51 63L49 63L49 61L61 61L61 60L60 60L60 59L57 59L57 58L52 58L52 57L44 57L44 56L45 56L45 55L44 55L44 54L43 54L43 53L40 53L40 52Z" fill="#f0ba97" fill-rule="evenodd"/>
    <path id="region-39" d="M68 46L68 47L70 47L70 48L74 48L74 49L75 49L75 50L71 50L71 49L68 49L68 48L67 48L67 47L66 47L66 46L66 45L67 45L67 46L68 46Z" fill="#9da58f" fill-rule="evenodd"/>
    <path id="region-40" d="M78 55L76 55L76 54L74 54L74 53L71 53L71 52L68 52L68 51L65 51L65 50L63 50L63 49L64 49L64 48L67 48L68 48L68 49L71 49L71 50L75 50L75 52L78 52L78 53L81 53L81 54L83 54L83 55L80 55L78 55Z" fill="#ce7954" fill-rule="evenodd"/>
    <path id="region-41" d="M95 49L96 49L97 49L97 51L96 51L96 52L94 52L93 52L93 51L93 50L95 50L95 49Z" fill="#528c7a" fill-rule="evenodd"/>
    <path id="region-42" d="M97 53L97 52L99 52L99 49L100 49L100 51L100 53L97 53Z" fill="#7c4939" fill-rule="evenodd"/>
    <path id="region-43" d="M75 50L76 50L79 50L90 50L90 51L93 51L93 52L94 52L94 55L91 55L83 55L83 54L81 54L81 53L78 53L78 52L75 52L75 50Z" fill="#f0ba97" fill-rule="evenodd"/>
    <path id="region-44" d="M100 51L103 51L103 52L104 52L104 53L105 53L105 54L104 54L101 54L101 53L100 53L100 51Z" fill="#b39898" fill-rule="evenodd"/>
    <path id="region-45" d="M96 52L96 53L97 53L100 53L101 53L101 54L100 54L95 54L95 55L94 55L94 52L96 52Z" fill="#d9987d" fill-rule="evenodd"/>
    <path id="region-46" d="M41 57L41 56L42 56L42 55L41 55L41 54L40 54L40 53L43 53L43 54L44 54L44 55L45 55L45 56L44 56L44 57L41 57Z" fill="#d9987d" fill-rule="evenodd"/>
    <path id="region-47" d="M95 55L95 54L100 54L100 55L97 55L97 56L96 56L96 55L95 55Z" fill="#d5c1ba" fill-rule="evenodd"/>
    <path id="region-48" d="M104 54L104 55L105 55L105 56L103 56L103 57L102 57L102 56L97 56L97 55L100 55L100 54L101 54L104 54Z" fill="#7c4939" fill-rule="evenodd"/>
    <path id="region-49" d="M105 55L106 55L106 54L107 54L107 56L110 56L110 58L109 58L109 59L119 59L119 58L126 58L126 59L125 59L125 60L124 60L124 61L125 61L125 62L126 62L126 60L127 60L127 61L129 61L129 63L130 63L130 62L132 62L132 63L131 63L131 64L132 64L132 65L129 65L129 66L127 66L127 65L126 65L126 66L124 66L124 65L119 65L119 66L118 66L118 67L121 67L121 68L120 68L120 69L121 69L121 70L125 70L125 71L123 71L123 72L124 72L124 73L122 73L122 74L121 74L121 75L116 75L116 76L113 76L113 75L112 75L112 74L110 74L110 75L108 75L108 74L107 74L107 75L106 75L106 77L104 77L104 76L105 76L105 75L104 75L104 74L105 74L105 72L103 72L103 71L100 71L100 70L101 70L101 69L103 69L103 68L105 68L105 67L109 67L109 66L110 66L110 65L111 65L111 64L110 64L110 63L107 63L107 62L106 62L106 61L105 61L105 60L106 60L106 59L105 59L105 56L105 55ZM118 63L119 63L119 62L120 62L120 60L118 60L118 61L113 61L113 62L113 63L111 63L111 64L117 64L117 63L118 63ZM111 71L111 72L110 72L110 73L112 73L112 74L113 74L113 73L114 73L114 74L116 74L116 73L115 73L115 72L114 72L114 71L113 71L113 72L112 72L112 71L111 71Z" fill="#ce7954" fill-rule="evenodd"/>
    <path id="region-50" d="M160 54L160 75L157 75L154 75L154 74L154 73L155 73L155 72L150 72L150 73L148 73L148 74L147 74L147 72L141 72L141 71L152 71L152 70L149 70L149 69L148 69L148 70L143 70L143 69L141 69L141 70L139 70L139 72L140 72L140 73L139 73L136 73L136 74L135 74L135 75L134 75L134 74L128 74L128 77L125 77L125 71L125 70L121 70L121 69L120 69L120 68L121 68L121 67L118 67L118 66L119 66L119 65L124 65L124 66L126 66L126 65L127 65L127 66L129 66L129 65L132 65L132 64L131 64L131 63L132 63L132 62L130 62L130 63L129 63L129 61L127 61L127 60L126 60L126 62L125 62L125 61L124 61L124 60L125 60L125 59L126 59L126 58L131 58L131 57L140 57L140 56L148 56L148 55L154 55L154 54L160 54ZM149 65L149 66L146 66L146 67L149 67L149 68L154 68L154 67L151 67L151 65L149 65ZM130 66L130 67L129 67L129 69L140 69L140 68L138 68L138 66L130 66Z" fill="#a36046" fill-rule="evenodd"/>
    <path id="region-51" d="M78 56L78 55L80 55L80 56L81 56L81 58L82 58L82 59L83 59L83 60L84 60L84 63L81 63L81 62L80 62L80 61L79 61L79 60L80 60L80 58L79 58L79 56L78 56Z" fill="#d9987d" fill-rule="evenodd"/>
    <path id="region-52" d="M80 55L83 55L91 55L91 56L88 56L88 57L89 57L89 58L91 58L91 59L89 59L83 59L82 59L82 58L85 58L85 57L87 57L87 56L81 56L80 56L80 55Z" fill="#3e140a" fill-rule="evenodd"/>
    <path id="region-53" d="M91 55L94 55L95 55L96 55L96 56L94 56L91 56L91 55Z" fill="#7c4939" fill-rule="evenodd"/>
    <path id="region-54" d="M79 60L78 60L78 58L76 58L76 56L78 56L79 56L79 58L80 58L80 60L79 60Z" fill="#7c4939" fill-rule="evenodd"/>
    <path id="region-55" d="M82 58L81 58L81 56L87 56L87 57L85 57L85 58L82 58Z" fill="#23181f" fill-rule="evenodd"/>
    <path id="region-56" d="M91 59L91 58L89 58L89 57L88 57L88 56L91 56L94 56L94 59L91 59Z" fill="#23181f" fill-rule="evenodd"/>
    <path id="region-57" d="M96 56L97 56L97 57L101 57L101 58L101 60L95 60L95 59L94 59L94 56L96 56Z" fill="#3e140a" fill-rule="evenodd"/>
    <path id="region-58" d="M97 56L102 56L102 57L103 57L103 56L105 56L105 59L106 59L106 60L105 60L105 61L106 61L106 62L107 62L107 63L110 63L110 64L107 64L106 64L106 63L105 63L105 62L104 62L102 62L102 58L101 58L101 57L97 57L97 56Z" fill="#a36046" fill-rule="evenodd"/>
    <path id="region-59" d="M32 61L32 58L34 58L34 57L41 57L44 57L44 58L47 58L47 59L52 59L52 60L44 60L44 61L32 61ZM36 58L36 59L33 59L33 60L41 60L41 59L38 59L38 58L36 58Z" fill="#7c4939" fill-rule="evenodd"/>
    <path id="region-60" d="M44 57L52 57L52 58L47 58L44 58L44 57Z" fill="#d9987d" fill-rule="evenodd"/>
    <path id="region-61" d="M36 58L38 58L38 59L41 59L41 60L33 60L33 59L36 59L36 58Z" fill="#3e140a" fill-rule="evenodd"/>
    <path id="region-62" d="M52 58L57 58L57 59L60 59L60 60L61 60L61 61L49 61L44 61L44 60L52 60L52 59L47 59L47 58L52 58Z" fill="#a36046" fill-rule="evenodd"/>
    <path id="region-63" d="M89 59L91 59L94 59L95 59L95 60L101 60L101 58L102 58L102 62L100 62L100 61L93 61L93 60L90 60L89 60L89 59Z" fill="#7c4939" fill-rule="evenodd"/>
    <path id="region-64" d="M0 82L0 59L2 59L2 61L3 61L3 60L5 60L5 61L6 61L6 60L7 60L7 61L8 61L8 60L10 60L10 61L11 61L11 60L16 60L16 61L17 61L17 62L21 62L21 63L22 63L22 62L24 62L24 63L26 63L26 64L27 64L27 62L29 62L29 63L28 63L28 64L29 64L29 65L30 65L30 66L29 66L29 67L31 67L31 66L32 66L32 65L33 65L33 66L34 66L34 65L36 65L36 66L35 66L35 68L34 68L34 69L31 69L31 68L29 68L29 69L28 69L28 68L25 68L25 67L23 67L23 68L22 68L22 70L23 70L23 71L21 71L21 70L19 70L19 71L18 71L18 72L20 72L20 73L26 73L26 72L27 72L27 73L30 73L30 74L31 74L31 76L32 76L32 77L33 77L33 79L34 79L34 78L38 78L38 79L38 80L40 80L40 82L41 82L41 84L42 84L42 83L43 83L43 82L44 82L44 83L45 83L46 83L46 82L47 82L47 84L49 84L49 85L50 85L50 86L51 86L51 87L50 87L50 88L51 88L51 90L17 90L17 88L19 88L19 87L17 87L17 86L16 86L16 87L14 87L14 86L13 86L13 87L12 87L12 89L10 89L10 90L4 90L4 89L5 89L5 88L7 88L7 87L10 87L10 85L12 85L12 84L13 84L13 82L11 82L11 83L10 83L10 82L0 82ZM16 73L16 74L14 74L14 76L16 76L16 75L19 75L19 74L18 74L18 73L16 73ZM26 80L26 81L25 81L25 83L23 83L23 86L24 86L24 88L25 88L25 89L26 89L26 87L25 87L25 85L28 85L28 84L31 84L31 83L32 83L32 82L31 82L31 81L27 81L27 80L26 80Z" fill="#926a64" fill-rule="evenodd"/>
    <path id="region-65" d="M85 63L84 63L84 60L83 60L83 59L89 59L89 60L90 60L90 61L89 61L89 62L88 62L88 61L85 61L85 63Z" fill="#a36046" fill-rule="evenodd"/>
    <path id="region-66" d="M86 64L85 64L85 63L85 61L88 61L88 62L89 62L89 61L90 61L90 60L93 60L93 61L93 62L98 62L98 63L92 63L92 62L91 62L91 64L102 64L102 65L97 65L88 65L88 64L86 64Z" fill="#3e140a" fill-rule="evenodd"/>
    <path id="region-67" d="M113 62L113 61L118 61L118 60L120 60L120 62L119 62L119 63L118 63L118 62L113 62Z" fill="#d9987d" fill-rule="evenodd"/>
    <path id="region-68" d="M29 64L33 64L33 62L32 62L32 61L44 61L49 61L49 63L51 63L51 64L52 64L52 65L49 65L49 66L48 66L48 67L49 67L49 68L50 68L50 69L49 69L49 71L51 71L51 70L53 70L53 72L54 72L54 71L56 71L56 72L58 72L58 74L60 74L60 75L61 75L61 76L56 76L56 77L57 77L57 78L58 78L58 80L62 80L62 78L64 78L64 77L66 77L66 76L69 76L69 77L70 77L70 79L66 79L66 80L67 80L67 81L68 81L68 80L69 80L69 81L70 81L70 80L71 80L71 81L72 81L72 83L71 83L71 84L67 84L67 85L66 85L66 84L63 84L63 85L60 85L60 84L57 84L57 83L56 83L56 85L58 85L58 86L59 86L59 87L60 87L60 88L58 88L57 88L57 86L52 86L52 85L51 85L51 84L50 84L50 85L49 85L49 84L47 84L47 82L46 82L46 83L45 83L45 81L46 81L46 80L45 80L45 79L43 79L38 79L38 78L34 78L34 79L33 79L33 77L32 77L32 76L31 76L31 74L34 74L34 75L35 75L35 74L38 74L39 74L39 73L41 73L41 72L40 72L40 71L36 71L31 71L31 72L28 72L28 71L26 71L26 70L28 70L28 69L29 69L29 68L31 68L31 69L34 69L34 68L35 68L35 66L36 66L36 65L34 65L34 66L33 66L33 65L32 65L32 66L31 66L31 67L29 67L29 66L30 66L30 65L29 65L29 64ZM48 75L48 77L47 77L47 78L49 78L49 79L53 79L53 77L50 77L50 75L48 75ZM50 82L50 83L52 83L52 82L50 82Z" fill="#d9987d" fill-rule="evenodd"/>
    <path id="region-69" d="M102 62L104 62L104 64L102 64L91 64L91 62L92 62L92 63L98 63L98 62L93 62L93 61L100 61L100 62L102 62Z" fill="#23181f" fill-rule="evenodd"/>
    <path id="region-70" d="M109 66L109 67L105 67L105 68L103 68L103 69L101 69L101 70L100 70L97 70L97 68L99 68L99 67L103 67L103 65L102 65L102 64L104 64L104 62L105 62L105 63L106 63L106 64L107 64L107 65L108 65L108 66L109 66Z" fill="#7c4939" fill-rule="evenodd"/>
    <path id="region-71" d="M118 63L117 63L117 64L111 64L111 63L113 63L113 62L118 62L118 63Z" fill="#b39898" fill-rule="evenodd"/>
    <path id="region-72" d="M86 66L86 64L88 64L88 65L97 65L97 66L98 66L98 67L96 67L96 68L95 68L95 67L93 67L93 68L92 68L92 67L92 66L86 66Z" fill="#b39898" fill-rule="evenodd"/>
    <path id="region-73" d="M110 64L111 64L111 65L110 65L110 66L109 66L108 66L108 65L107 65L107 64L110 64Z" fill="#b39898" fill-rule="evenodd"/>
    <path id="region-74" d="M79 66L79 65L84 65L84 66L86 66L92 66L92 67L86 67L86 68L83 68L80 68L80 66L79 66Z" fill="#d5c1ba" fill-rule="evenodd"/>
    <path id="region-75" d="M97 65L102 65L103 65L103 67L99 67L99 66L98 66L97 66L97 65Z" fill="#926a64" fill-rule="evenodd"/>
    <path id="region-76" d="M149 65L151 65L151 67L154 67L154 68L149 68L149 67L146 67L146 66L149 66L149 65Z" fill="#7c4939" fill-rule="evenodd"/>
    <path id="region-77" d="M66 76L65 76L65 75L70 75L70 73L69 73L69 72L67 72L67 70L66 70L66 69L69 69L69 68L75 68L75 67L76 67L76 66L79 66L80 66L80 68L83 68L83 69L82 69L82 70L78 70L78 71L77 71L77 72L76 72L76 75L75 75L75 76L76 76L76 77L75 77L75 78L76 78L76 79L78 79L78 78L79 78L79 79L80 79L80 78L81 78L81 79L82 79L82 80L71 80L70 80L70 81L69 81L69 80L68 80L68 81L67 81L67 80L66 80L66 79L70 79L70 77L69 77L69 76L66 76Z" fill="#ce7954" fill-rule="evenodd"/>
    <path id="region-78" d="M99 67L99 68L97 68L97 70L96 70L95 70L95 69L94 69L94 70L91 70L91 68L87 68L87 69L86 69L86 70L84 70L84 71L88 71L88 72L82 72L82 70L82 69L83 69L83 68L86 68L86 67L92 67L92 68L93 68L93 67L95 67L95 68L96 68L96 67L98 67L98 66L99 66L99 67Z" fill="#583c3c" fill-rule="evenodd"/>
    <path id="region-79" d="M130 66L138 66L138 68L140 68L140 69L129 69L129 67L130 67L130 66Z" fill="#7c4939" fill-rule="evenodd"/>
    <path id="region-80" d="M23 71L23 70L22 70L22 68L23 68L23 67L25 67L25 68L28 68L28 69L28 70L26 70L26 71L28 71L28 72L31 72L31 71L36 71L36 73L38 73L38 74L35 74L35 75L34 75L34 74L31 74L30 74L30 73L27 73L27 72L26 72L24 72L24 71L23 71Z" fill="#a36046" fill-rule="evenodd"/>
    <path id="region-81" d="M88 71L84 71L84 70L86 70L86 69L87 69L87 68L91 68L91 70L88 70L88 71Z" fill="#23181f" fill-rule="evenodd"/>
    <path id="region-82" d="M91 70L94 70L94 69L95 69L95 70L96 70L96 71L95 71L95 73L94 73L94 76L91 76L91 75L90 75L90 74L89 74L89 73L82 73L82 72L88 72L88 71L88 70L91 70Z" fill="#7c4939" fill-rule="evenodd"/>
    <path id="region-83" d="M140 73L140 72L139 72L139 70L141 70L141 69L143 69L143 70L148 70L148 69L149 69L149 70L152 70L152 71L141 71L141 72L147 72L147 74L146 74L146 73L140 73Z" fill="#7c4939" fill-rule="evenodd"/>
    <path id="region-84" d="M26 72L26 73L20 73L20 72L18 72L18 71L19 71L19 70L21 70L21 71L23 71L24 71L24 72L26 72Z" fill="#583c3c" fill-rule="evenodd"/>
    <path id="region-85" d="M78 71L78 70L82 70L82 72L81 72L81 73L79 73L79 72L78 72L78 71Z" fill="#7c4939" fill-rule="evenodd"/>
    <path id="region-86" d="M84 90L83 90L83 88L79 88L79 86L78 86L78 87L73 87L73 88L72 88L72 87L71 87L71 86L72 86L72 84L71 84L71 83L72 83L72 81L71 81L71 80L82 80L82 79L81 79L81 78L80 78L80 79L79 79L79 78L78 78L78 79L76 79L76 78L75 78L75 77L76 77L76 76L75 76L75 75L76 75L76 72L77 72L77 71L78 71L78 72L79 72L79 73L81 73L81 72L82 72L82 73L89 73L89 74L90 74L90 75L91 75L91 76L94 76L94 73L95 73L95 71L96 71L96 70L97 70L100 70L100 71L103 71L103 72L105 72L105 74L104 74L104 75L105 75L105 76L104 76L104 77L106 77L106 75L107 75L107 74L108 74L108 75L110 75L110 74L112 74L112 75L113 75L113 76L110 76L110 78L110 79L109 79L109 80L110 80L110 81L107 81L107 82L106 82L106 83L108 83L108 82L113 82L115 82L115 81L116 81L116 80L117 80L117 81L121 81L121 79L123 79L123 80L124 80L124 81L122 81L122 82L118 82L118 84L114 84L114 85L111 85L111 86L108 86L108 85L107 85L104 85L104 84L102 84L102 83L100 83L100 84L101 84L101 86L102 86L102 87L100 87L100 85L98 85L98 84L96 84L96 85L94 85L94 82L98 82L98 79L100 79L100 78L102 78L102 77L99 77L99 78L93 78L93 79L91 79L91 80L92 80L92 81L93 81L93 86L94 86L94 88L92 88L92 89L93 89L93 90L89 90L89 89L85 89L85 87L86 87L86 86L84 86L84 90Z" fill="#a36046" fill-rule="evenodd"/>
    <path id="region-87" d="M36 71L40 71L40 72L41 72L41 73L39 73L39 74L38 74L38 73L36 73L36 71Z" fill="#ce7954" fill-rule="evenodd"/>
    <path id="region-88" d="M111 71L112 71L112 72L113 72L113 71L114 71L114 72L115 72L115 73L116 73L116 74L114 74L114 73L113 73L113 74L112 74L112 73L110 73L110 72L111 72L111 71Z" fill="#a36046" fill-rule="evenodd"/>
    <path id="region-89" d="M160 89L160 90L144 90L144 89L142 89L142 88L141 88L141 87L140 87L140 83L141 83L141 82L140 82L140 81L139 81L139 80L138 80L138 79L134 79L134 80L133 80L133 81L132 81L132 80L131 80L131 79L125 79L125 78L119 78L119 77L122 77L122 76L121 76L121 75L121 74L122 74L122 73L124 73L124 72L123 72L123 71L125 71L125 77L128 77L128 74L134 74L134 75L135 75L135 74L136 74L136 73L139 73L139 75L139 77L142 77L142 78L146 78L146 77L147 77L147 76L148 76L148 78L147 78L147 80L146 80L146 79L145 79L145 80L144 80L144 81L147 81L147 82L148 82L148 83L151 83L151 84L149 84L149 85L150 85L150 86L148 86L148 84L146 84L146 83L144 83L144 84L145 84L145 85L146 85L146 86L147 86L147 87L148 87L148 88L152 88L152 89L160 89ZM132 77L132 79L134 79L134 78L133 78L133 77L132 77Z" fill="#7c4939" fill-rule="evenodd"/>
    <path id="region-90" d="M148 74L148 73L150 73L150 72L155 72L155 73L154 73L154 74L148 74Z" fill="#7c4939" fill-rule="evenodd"/>
    <path id="region-91" d="M16 73L18 73L18 74L19 74L19 75L16 75L16 76L14 76L14 74L16 74L16 73Z" fill="#583c3c" fill-rule="evenodd"/>
    <path id="region-92" d="M139 73L140 73L146 73L146 74L146 75L144 75L144 74L142 74L142 76L140 76L140 75L139 75L139 73Z" fill="#23181f" fill-rule="evenodd"/>
    <path id="region-93" d="M147 74L148 74L154 74L154 75L157 75L157 76L156 76L156 77L155 77L155 76L152 76L152 78L151 78L151 79L148 79L148 80L149 80L149 81L155 81L155 82L154 82L154 85L153 85L153 86L154 86L154 87L148 87L147 87L147 86L146 86L146 85L145 85L145 84L144 84L144 83L146 83L146 84L148 84L148 86L150 86L150 85L149 85L149 84L151 84L151 83L148 83L148 82L147 82L147 81L144 81L144 80L145 80L145 79L146 79L146 80L147 80L147 78L148 78L148 76L147 76L147 77L146 77L146 78L142 78L142 77L139 77L139 75L140 75L140 76L142 76L142 74L144 74L144 75L146 75L146 74L147 74Z" fill="#583c3c" fill-rule="evenodd"/>
    <path id="region-94" d="M48 75L50 75L50 77L53 77L53 79L49 79L49 78L47 78L47 77L48 77L48 75Z" fill="#ce7954" fill-rule="evenodd"/>
    <path id="region-95" d="M116 76L116 75L121 75L121 76L122 76L122 77L119 77L119 78L119 79L117 79L117 78L114 78L114 77L118 77L118 76L116 76Z" fill="#a36046" fill-rule="evenodd"/>
    <path id="region-96" d="M160 75L160 89L152 89L152 88L148 88L148 87L154 87L154 86L153 86L153 85L154 85L154 82L155 82L155 81L149 81L149 80L148 80L148 79L151 79L151 78L152 78L152 76L155 76L155 77L156 77L156 76L157 76L157 75L160 75Z" fill="#23181f" fill-rule="evenodd"/>
    <path id="region-97" d="M113 76L116 76L118 76L118 77L114 77L114 78L110 78L110 76L113 76Z" fill="#7c4939" fill-rule="evenodd"/>
    <path id="region-98" d="M94 90L93 90L93 89L92 89L92 88L94 88L94 86L93 86L93 81L92 81L92 80L91 80L91 79L93 79L93 78L99 78L99 77L102 77L102 78L100 78L100 79L98 79L98 82L94 82L94 85L96 85L96 84L98 84L98 85L100 85L100 87L102 87L102 86L101 86L101 84L100 84L100 83L102 83L102 84L104 84L104 85L107 85L107 86L104 86L104 87L105 87L105 89L102 89L102 90L98 90L98 87L96 87L96 88L95 88L95 89L94 89L94 90Z" fill="#7c4939" fill-rule="evenodd"/>
    <path id="region-99" d="M132 77L133 77L133 78L134 78L134 79L132 79L132 77Z" fill="#23181f" fill-rule="evenodd"/>
    <path id="region-100" d="M110 80L109 80L109 79L110 79L110 78L114 78L117 78L117 79L115 79L115 80L114 80L110 80Z" fill="#ce7954" fill-rule="evenodd"/>
    <path id="region-101" d="M124 80L123 80L123 79L121 79L121 81L117 81L117 80L116 80L116 81L115 81L115 82L113 82L113 81L114 81L114 80L115 80L115 79L117 79L119 79L119 78L125 78L125 79L131 79L131 80L132 80L132 81L127 81L127 80L124 80Z" fill="#583c3c" fill-rule="evenodd"/>
    <path id="region-102" d="M41 82L40 82L40 80L38 80L38 79L43 79L43 81L42 81L42 82L41 82Z" fill="#ce7954" fill-rule="evenodd"/>
    <path id="region-103" d="M45 83L44 83L44 82L43 82L43 83L42 83L42 84L41 84L41 82L42 82L42 81L43 81L43 79L45 79L45 80L46 80L46 81L45 81L45 83Z" fill="#a36046" fill-rule="evenodd"/>
    <path id="region-104" d="M140 90L133 90L133 89L132 89L132 88L135 88L135 85L129 85L129 87L128 87L128 88L127 88L127 85L128 85L128 83L132 83L132 84L135 84L135 83L133 83L133 82L132 82L132 81L133 81L133 80L134 80L134 79L138 79L138 80L139 80L139 81L140 81L140 82L141 82L141 83L140 83L140 87L138 87L138 88L139 88L139 89L140 89L140 90Z" fill="#583c3c" fill-rule="evenodd"/>
    <path id="region-105" d="M26 80L27 80L27 81L31 81L31 82L32 82L32 83L31 83L31 84L28 84L28 85L25 85L25 87L26 87L26 89L25 89L25 88L24 88L24 86L23 86L23 83L25 83L25 81L26 81L26 80Z" fill="#583c3c" fill-rule="evenodd"/>
    <path id="region-106" d="M113 82L108 82L108 83L106 83L106 82L107 82L107 81L110 81L110 80L114 80L114 81L113 81L113 82Z" fill="#7c4939" fill-rule="evenodd"/>
    <path id="region-107" d="M116 90L107 90L107 89L108 89L108 88L110 88L110 87L112 87L112 88L114 88L114 87L118 87L118 84L118 82L122 82L122 81L124 81L124 80L127 80L127 81L132 81L132 82L133 82L133 83L135 83L135 84L132 84L132 83L128 83L128 85L127 85L127 88L128 88L128 87L129 87L129 85L135 85L135 88L132 88L132 89L133 89L133 90L126 90L126 87L124 87L124 86L120 86L120 85L119 85L119 87L120 87L120 88L119 88L119 89L116 89L116 90Z" fill="#7c4939" fill-rule="evenodd"/>
    <path id="region-108" d="M4 90L0 90L0 82L10 82L10 83L11 83L11 82L13 82L13 84L12 84L12 85L10 85L10 87L7 87L7 88L5 88L5 89L4 89L4 90Z" fill="#583c3c" fill-rule="evenodd"/>
    <path id="region-109" d="M50 82L52 82L52 83L50 83L50 82Z" fill="#926a64" fill-rule="evenodd"/>
    <path id="region-110" d="M60 87L59 87L59 86L58 86L58 85L56 85L56 83L57 83L57 84L60 84L60 85L63 85L63 84L66 84L66 85L67 85L67 84L71 84L71 85L70 85L70 87L69 87L69 88L66 88L63 88L63 87L60 87Z" fill="#a36046" fill-rule="evenodd"/>
    <path id="region-111" d="M59 90L51 90L51 88L50 88L50 87L51 87L51 86L50 86L50 85L50 84L51 84L51 85L52 85L52 86L57 86L57 88L58 88L58 89L59 89L59 90Z" fill="#a36046" fill-rule="evenodd"/>
    <path id="region-112" d="M83 90L67 90L67 89L66 89L66 88L69 88L69 87L70 87L70 85L71 85L71 84L72 84L72 86L71 86L71 87L72 87L72 88L73 88L73 87L78 87L78 86L79 86L79 88L83 88L83 90Z" fill="#7c4939" fill-rule="evenodd"/>
    <path id="region-113" d="M107 90L102 90L102 89L105 89L105 87L104 87L104 86L107 86L107 85L108 85L108 86L111 86L111 85L114 85L114 84L118 84L118 87L114 87L114 88L112 88L112 87L110 87L110 88L108 88L108 89L107 89L107 90Z" fill="#583c3c" fill-rule="evenodd"/>
    <path id="region-114" d="M119 89L119 88L120 88L120 87L119 87L119 85L120 85L120 86L124 86L124 87L124 88L125 88L125 89L119 89Z" fill="#23181f" fill-rule="evenodd"/>
    <path id="region-115" d="M17 90L10 90L10 89L12 89L12 87L13 87L13 86L14 86L14 87L16 87L16 86L17 86L17 87L19 87L19 88L17 88L17 90Z" fill="#583c3c" fill-rule="evenodd"/>
    <path id="region-116" d="M89 90L84 90L84 86L86 86L86 87L85 87L85 89L89 89L89 90Z" fill="#ce7954" fill-rule="evenodd"/>
    <path id="region-117" d="M67 90L59 90L59 89L58 89L58 88L60 88L60 87L63 87L63 88L66 88L66 89L67 89L67 90Z" fill="#926a64" fill-rule="evenodd"/>
    <path id="region-118" d="M98 90L94 90L94 89L95 89L95 88L96 88L96 87L98 87L98 90Z" fill="#583c3c" fill-rule="evenodd"/>
    <path id="region-119" d="M126 90L116 90L116 89L119 89L125 89L125 88L124 88L124 87L126 87L126 90Z" fill="#583c3c" fill-rule="evenodd"/>
    <path id="region-120" d="M144 90L140 90L140 89L139 89L139 88L138 88L138 87L140 87L141 87L141 88L142 88L142 89L144 89L144 90Z" fill="#23181f" fill-rule="evenodd"/>
  </g>
  <g id="outlines" fill="none" stroke="#111" stroke-width="0.1" stroke-linejoin="round" stroke-linecap="round">
    <path d="M0 32L0 0L160 0L160 5M160 5L160 6M160 11L160 19M160 6L160 11M160 19L160 20M160 20L160 26M0 36L0 32M160 26L160 36M160 36L160 54M0 59L0 36M160 54L160 75M0 82L0 59M10 90L4 90M51 90L17 90M84 90L83 90M93 90L89 90M160 89L160 90L144 90M160 75L160 89M94 90L93 90M102 90L98 90M140 90L133 90M116 90L107 90M133 90L126 90M4 90L0 90L0 82M59 90L51 90M83 90L67 90M107 90L102 90M17 90L10 90M89 90L84 90M67 90L59 90M98 90L94 90M126 90L116 90M144 90L140 90M4 29L4 28L5 28L5 27L6 27L6 29L7 29L7 27L8 27L8 26L10 26L10 25L12 25L12 24L13 24L13 23L15 23L15 22L18 22L18 21L19 21L19 20L21 20L21 19L23 19L23 18L27 18L27 17L30 17L30 19L32 19L32 16L34 16L34 15L37 15L37 14L41 14L41 13L44 13L44 12L46 12L46 8L45 8L45 7L46 7L46 5L49 5L49 4L52 4L52 2L54 2L54 3L55 3L55 2L58 2L58 3L59 3M64 5L66 5L66 6L68 6M81 10L81 12M59 3L60 3L60 4L62 4L62 3L63 3L63 4L64 4L64 5M68 6L71 6L71 4L72 4L72 3L74 3L74 4L75 4L75 6L76 6L76 7L77 7M77 7L77 6L78 6L78 5L79 5L79 4L80 4L80 6M123 4L126 4L126 7L124 7L124 6L123 6L123 4M122 11L125 11L125 12L128 12L128 11L131 11L131 10L132 10L132 9L135 9L135 8L140 8L140 7L141 7L141 5L144 5L144 4L145 4L145 5L147 5L147 4L148 4L148 7L146 7L146 9L145 9L145 12L149 12L149 11L151 11M151 11L151 10L152 10L152 8L153 8L153 7L155 7L155 6L157 6L157 5L160 5M80 6L83 6L83 9L82 9L82 10L81 10M96 9L96 8L97 8L97 7L99 7L99 6L100 6L100 7L102 7L102 6L103 6L103 9L102 9L102 10M105 11L106 11L106 10L107 10L107 9L108 9L108 10L109 10L109 9L112 9L112 8L113 8L113 7L114 7L114 8L115 8L115 9L114 9L114 10L113 10L113 12L114 12L114 11L115 11L115 10L116 10L116 9L120 9L120 10L122 10L122 11M94 13L94 10L95 10L95 9L96 9M102 10L104 10L104 11L105 11M84 16L85 16L85 15L86 15L86 11L87 11L87 15L88 15L88 14L90 14L90 15L91 15L91 16M81 12L81 13M81 13L83 13L83 16L84 16M91 16L93 16L93 13L94 13M0 32L2 32L2 31L3 31L3 29L4 29M64 5L63 5L63 6L61 6L61 5L59 5L59 3M68 7L68 6M77 9L71 9L71 10L70 10L70 11L68 11L68 12L66 12L66 14L65 14L65 11L66 11L66 7L68 7M81 10L80 10L80 9L77 9M66 38L66 33L67 33L67 30L68 30L68 28L69 28L69 26L70 26L70 24L71 24L71 23L72 23L72 21L73 21L73 20L74 20L74 18L75 18L75 17L76 17L76 16L77 16L77 15L78 15L78 14L79 14L79 13L80 13L80 12L81 12M31 21L34 21L34 22L33 22L33 24L29 24L29 22L31 22L31 21M4 29L5 29L5 30L6 30L6 31L4 31L4 33L5 33L5 35L7 35L7 36L11 36L11 37L12 37L12 35L13 35L13 34L14 34L14 32L15 32L15 31L16 31L16 26L15 26L15 25L16 25L16 23L19 23L19 22L22 22L22 23L24 23L24 24L25 24L25 25L26 25L26 28L28 28L28 31L30 31L30 30L31 30L31 29L34 29L34 30L37 30L37 29L42 29L42 28L45 28M45 28L45 25L46 25L46 24L50 24L50 23L51 23L51 30L50 30L50 32L49 32L49 33L48 33L48 34L47 34L47 35L46 35L46 38L54 38L54 39L55 39L55 38L60 38L60 39L62 39L62 40L65 40L65 38L66 38M77 8L77 7M68 7L72 7L72 6L74 6L74 7L75 7L75 8L77 8M77 8L79 8L79 7L80 7L80 6M152 11L151 11M122 11L122 12L124 12L124 13L125 13L125 14L124 14L124 15L123 15L123 16L121 16L121 19L122 19L122 20L127 20L127 18L126 18L126 17L127 17L127 16L128 16L128 15L127 15L127 14L126 14L126 13L129 13L129 14L130 14L130 16L129 16L129 17L131 17L131 18L134 18L134 17L133 17L133 16L135 16L135 15L137 15L137 16L136 16L136 17L137 17L137 18L138 18M148 14L149 14L149 13L150 13L150 12L152 12L152 11M144 17L144 15L147 15L147 14L148 14M138 18L139 18L139 17L141 17L141 18L140 18L140 19L142 19L142 18L144 18L144 17M160 11L157 11L157 10L158 10L158 9L159 9L159 7L158 7L158 6L160 6M152 11L153 11L153 12L157 12L157 14L155 14L155 15L154 15L154 16L153 16L153 17L152 17M152 17L152 18L154 18L154 19L156 19L156 18L158 18L158 19L160 19M77 9L77 8M96 9L98 9L98 8L101 8L101 10L102 10M105 11L105 12L104 12L104 13L105 13L105 14L108 14L108 13L109 13L109 11L110 11L110 10L111 10L111 13L113 13L113 14L120 14L120 13L119 13L119 12L120 12L120 11L122 11M91 16L88 16L88 21L87 21M87 21L85 21L85 22L84 22L84 26L83 26L83 29L85 29L85 28L86 28L86 27L87 27L87 26L88 26M94 13L94 14L95 14L95 16L94 16L94 18L93 18L93 17L91 17L91 16M112 15L115 15L115 16L114 16L114 20L112 20L112 19L110 19L110 18L111 18L111 17L112 17L112 15M143 23L143 21L142 21L142 20L141 20L141 21L140 21L140 23L139 23L139 21L138 21L138 20L139 20L139 19L138 19L138 18M95 23L95 22L96 22L96 23L98 23L98 22L101 22L101 21L104 21L104 22L105 22L105 23L104 23L104 27L105 27L105 30L104 30L104 31L103 31L103 32L102 32L102 33L99 33L99 32L101 32L101 31L100 31L100 30L99 30L99 29L98 29L98 27L97 27L97 26L98 26L98 25L96 25L96 24L95 24M88 26L88 22L89 22L89 27L90 27L90 28L91 28L91 26L92 26L92 24L94 24M94 24L94 23L95 23M95 24L95 26L96 26L96 31L97 31L97 35L98 35L98 39L99 39L99 43L100 43L100 45L101 45L101 42L102 42L102 43L105 43L105 42L109 42L109 41L113 41L113 40L114 40L114 39L115 39L115 38L118 38L118 37L121 37L121 35L119 35L119 34L120 34L120 32L121 32L121 33L122 33L122 32L124 32L124 31L125 31L125 29L127 29L127 28L132 28L132 29L133 29L133 28L134 28L134 26L135 26L135 27L136 27L136 26L137 26L137 25L140 25L140 24L141 24L141 23L143 23M84 16L84 17L83 17L83 18L86 18L86 17L87 17L87 21M148 14L148 15L149 15L149 16M149 16L151 16L151 17L152 17M74 27L75 27L75 23L76 23L76 20L77 20L77 18L78 18L78 16L79 16L79 15L80 15L80 14L81 14L81 13M66 38L66 42M66 42L67 42L67 41L68 41L68 42L69 42L69 40L68 40L68 39L69 39L69 38L70 38L70 37L72 37L72 35L71 35L71 30L72 30L72 27L73 27M73 27L74 27M89 31L89 28L88 28L88 26M74 27L74 34L75 34L75 36M75 37L80 37L80 36L82 36L82 35L88 35L88 32L87 32L87 31L89 31M75 36L75 37M144 17L148 17L148 16L149 16M143 23L144 23L144 19L151 19L151 22L148 22L148 23L150 23L150 24L151 24L151 23L153 23L153 22L154 22L154 21L158 21L158 20L160 20M143 23L143 24L145 24L145 25L144 25L144 26L148 26L148 27L150 27L150 25L152 25L152 24L154 24L154 26L160 26M95 23L95 24M38 45L38 42L37 42L37 40L38 40L38 38L39 38L39 36L40 36L40 35L41 35L41 34L42 34L42 32L43 32L43 30L44 30L44 29L45 29L45 28M0 36L5 36L5 37L8 37L8 40L9 40L9 42L14 42L14 43L15 43L15 42L17 42L17 43L18 43L18 42L22 42L22 43L23 43L23 45L26 45L26 46L28 46L28 47L30 47L30 49L32 49L32 50L37 50L37 51L38 51L38 52L40 52M40 52L40 50L39 50L39 48L37 48L37 46L36 46L36 45L38 45M94 33L94 30L93 30L93 29L94 29L94 24M96 49L96 47M89 31L90 31L90 30L91 30L91 32L90 32L90 37L91 37L91 45L92 45L92 46L93 46L93 47L94 47L94 48L95 48L95 49M96 47L95 47L95 46L94 46L94 45L93 45L93 44L92 44L92 43L93 43L93 42L92 42L92 41L93 41L93 33L94 33M95 49L96 49M64 46L64 44L65 44L65 42L66 42M38 45L39 45L39 44L40 44L40 45L43 45L43 46L48 46L48 47L49 47L49 46L51 46L51 47L58 47L58 48L60 48L60 44L61 44L61 45L62 45L62 47L63 47L63 46L64 46M94 33L94 36L95 36L95 37L94 37L94 38L95 38L95 42L96 42L96 47M110 58L114 58L114 57L116 57L116 56L118 56L118 55L119 55L119 56L120 56L120 55L124 55L124 54L127 54L127 53L128 53L128 52L130 52L130 50L131 50L131 51L132 51L132 50L133 50L133 48L135 48L135 47L136 47L136 46L137 46L137 45L138 45L138 43L137 43L137 44L133 44L133 43L132 43L132 44L131 44L131 45L130 45L130 43L129 43L129 42L132 42L132 41L134 41L134 40L135 40L135 39L138 39L138 38L140 38L140 37L141 37L141 38L142 38L142 37L145 37L145 36L148 36L148 35L149 35L149 36L151 36L151 35L153 35L153 34L157 34L157 35L155 35L155 36L154 36L154 37L158 37L158 36L160 36M96 49L97 49L97 51L96 51L96 52M97 53L97 52L99 52L99 49L100 49L100 51M100 51L103 51L103 52L104 52L104 53L105 53L105 54L104 54M96 52L96 53L97 53M104 54L104 55L105 55M105 55L106 55L106 54L107 54L107 56L110 56L110 58M74 37L73 37L73 27M76 50L76 45L75 45L75 42L74 42L74 37M66 42L66 43L69 43L69 44L71 44L71 46L68 46M68 46L68 47L70 47L70 48L74 48L74 49L75 49L75 50M75 50L76 50M74 37L74 36L75 36M75 37L75 39L76 39L76 43L77 43L77 46L78 46L78 49L79 49L79 50M93 51L93 50L95 50L95 49M79 50L90 50L90 51L93 51M110 58L109 58L109 59L119 59L119 58L126 58M126 58L131 58L131 57L140 57L140 56L148 56L148 55L154 55L154 54L160 54M40 53L40 52M41 57L41 56L42 56L42 55L41 55L41 54L40 54L40 53M32 61L32 58L34 58L34 57L41 57M0 59L2 59L2 61L3 61L3 60L5 60L5 61L6 61L6 60L7 60L7 61L8 61L8 60L10 60L10 61L11 61L11 60L16 60L16 61L17 61L17 62L21 62L21 63L22 63L22 62L24 62L24 63L26 63L26 64L27 64L27 62L29 62L29 63L28 63L28 64L29 64M29 64L33 64L33 62L32 62L32 61M76 50L79 50M64 46L66 46M66 46L66 45L67 45L67 46L68 46M67 48L67 47L66 47L66 46M78 55L76 55L76 54L74 54L74 53L71 53L71 52L68 52L68 51L65 51L65 50L63 50L63 49L64 49L64 48L67 48M40 53L43 53L43 54L44 54L44 55L45 55L45 56L44 56L44 57M78 56L78 55M84 63L81 63L81 62L80 62L80 61L79 61L79 60M79 60L78 60L78 58L76 58L76 56L78 56M44 57L52 57L52 58M52 58L57 58L57 59L60 59L60 60L61 60L61 61L49 61M85 63L84 63M86 64L85 64L85 63M49 61L49 63L51 63L51 64L52 64L52 65L49 65L49 66L48 66L48 67L49 67L49 68L50 68L50 69L49 69L49 71L51 71L51 70L53 70L53 72L54 72L54 71L56 71L56 72L58 72L58 74L60 74L60 75L61 75L61 76L56 76L56 77L57 77L57 78L58 78L58 80L62 80L62 78L64 78L64 77L66 77L66 76M86 66L86 64M79 66L79 65L84 65L84 66L86 66M66 76L65 76L65 75L70 75L70 73L69 73L69 72L67 72L67 70L66 70L66 69L69 69L69 68L75 68L75 67L76 67L76 66L79 66M67 48L68 48L68 49L71 49L71 50L75 50M83 55L83 54L81 54L81 53L78 53L78 52L75 52L75 50M78 55L80 55M80 55L83 55M93 51L93 52L94 52M94 52L96 52M100 53L100 51M97 53L100 53M94 55L94 52M83 55L91 55M91 55L94 55M100 53L101 53L101 54M101 54L104 54M95 55L95 54L100 54M100 54L101 54M94 55L95 55M41 57L44 57M97 56L97 55L100 55L100 54M95 55L96 55L96 56M96 56L97 56M105 56L105 55M97 56L102 56L102 57L103 57L103 56L105 56M125 71L125 70L121 70L121 69L120 69L120 68L121 68L121 67L118 67L118 66L119 66L119 65L124 65L124 66L126 66L126 65L127 65L127 66L129 66L129 65L132 65L132 64L131 64L131 63L132 63L132 62L130 62L130 63L129 63L129 61L127 61L127 60L126 60L126 62L125 62L125 61L124 61L124 60L125 60L125 59L126 59L126 58M105 56L105 59L106 59L106 60L105 60L105 61L106 61L106 62L107 62L107 63L110 63L110 64M113 62L113 61L118 61L118 60L120 60L120 62L119 62L119 63L118 63M109 66L109 67L105 67L105 68L103 68L103 69L101 69L101 70L100 70M118 63L117 63L117 64L111 64L111 63L113 63L113 62M110 64L111 64L111 65L110 65L110 66L109 66M100 70L100 71L103 71L103 72L105 72L105 74L104 74L104 75L105 75L105 76L104 76L104 77L106 77L106 75L107 75L107 74L108 74L108 75L110 75L110 74L112 74L112 75L113 75L113 76M111 71L112 71L112 72L113 72L113 71L114 71L114 72L115 72L115 73L116 73L116 74L114 74L114 73L113 73L113 74L112 74L112 73L110 73L110 72L111 72L111 71M121 75L121 74L122 74L122 73L124 73L124 72L123 72L123 71L125 71M116 76L116 75L121 75M113 76L116 76M149 65L151 65L151 67L154 67L154 68L149 68L149 67L146 67L146 66L149 66L149 65M130 66L138 66L138 68L140 68L140 69L129 69L129 67L130 67L130 66M140 73L140 72L139 72L139 70L141 70L141 69L143 69L143 70L148 70L148 69L149 69L149 70L152 70L152 71L141 71L141 72L147 72L147 74M125 71L125 77L128 77L128 74L134 74L134 75L135 75L135 74L136 74L136 73L139 73M148 74L148 73L150 73L150 72L155 72L155 73L154 73L154 74M139 73L140 73M147 74L148 74M154 74L154 75L157 75M157 75L160 75M81 56L80 56L80 55M83 59L82 59L82 58M78 56L79 56L79 58L80 58L80 60L79 60M82 58L81 58L81 56M84 63L84 60L83 60L83 59M91 56L91 55M81 56L87 56L87 57L85 57L85 58L82 58M91 59L91 58L89 58L89 57L88 57L88 56L91 56M89 59L91 59M83 59L89 59M91 56L94 56M94 56L96 56M94 59L94 56M91 59L94 59M101 58L101 57L97 57L97 56M94 59L95 59L95 60L101 60L101 58M101 58L102 58L102 62M102 62L104 62M104 62L105 62L105 63L106 63L106 64L107 64M107 64L110 64M47 58L44 58L44 57M36 58L38 58L38 59L41 59L41 60L33 60L33 59L36 59L36 58M44 61L44 60L52 60L52 59L47 59L47 58M32 61L44 61M47 58L52 58M44 61L49 61M89 59L89 60L90 60M90 60L93 60L93 61M93 61L100 61L100 62L102 62M28 69L29 69L29 68L31 68L31 69L34 69L34 68L35 68L35 66L36 66L36 65L34 65L34 66L33 66L33 65L32 65L32 66L31 66L31 67L29 67L29 66L30 66L30 65L29 65L29 64M38 79L38 78L34 78L34 79L33 79L33 77L32 77L32 76L31 76L31 74M50 85L49 85L49 84L47 84L47 82L46 82L46 83L45 83M23 71L23 70L22 70L22 68L23 68L23 67L25 67L25 68L28 68L28 69M31 74L30 74L30 73L27 73L27 72L26 72M26 72L26 73L20 73L20 72L18 72L18 71L19 71L19 70L21 70L21 71L23 71M16 73L18 73L18 74L19 74L19 75L16 75L16 76L14 76L14 74L16 74L16 73M41 82L40 82L40 80L38 80L38 79M45 83L44 83L44 82L43 82L43 83L42 83L42 84L41 84L41 82M26 80L27 80L27 81L31 81L31 82L32 82L32 83L31 83L31 84L28 84L28 85L25 85L25 87L26 87L26 89L25 89L25 88L24 88L24 86L23 86L23 83L25 83L25 81L26 81L26 80M0 82L10 82L10 83L11 83L11 82L13 82L13 84L12 84L12 85L10 85L10 87L7 87L7 88L5 88L5 89L4 89L4 90M51 90L51 88L50 88L50 87L51 87L51 86L50 86L50 85M10 90L10 89L12 89L12 87L13 87L13 86L14 86L14 87L16 87L16 86L17 86L17 87L19 87L19 88L17 88L17 90M85 63L85 61L88 61L88 62L89 62L89 61L90 61L90 60M102 64L91 64L91 62L92 62L92 63L98 63L98 62L93 62L93 61M102 65L102 64M86 64L88 64L88 65L97 65M97 65L102 65M113 62L118 62L118 63M71 80L70 80L70 81L69 81L69 80L68 80L68 81L67 81L67 80L66 80L66 79L70 79L70 77L69 77L69 76L66 76M28 69L28 70L26 70L26 71L28 71L28 72L31 72L31 71L36 71M38 74L35 74L35 75L34 75L34 74L31 74M71 84L71 83L72 83L72 81L71 81L71 80M36 71L40 71L40 72L41 72L41 73L39 73L39 74L38 74M48 75L50 75L50 77L53 77L53 79L49 79L49 78L47 78L47 77L48 77L48 75M38 79L43 79M43 79L45 79L45 80L46 80L46 81L45 81L45 83M50 82L52 82L52 83L50 83L50 82M60 87L59 87L59 86L58 86L58 85L56 85L56 83L57 83L57 84L60 84L60 85L63 85L63 84L66 84L66 85L67 85L67 84L71 84M50 85L50 84L51 84L51 85L52 85L52 86L57 86L57 88L58 88M58 88L60 88L60 87M102 64L104 64L104 62M109 66L108 66L108 65L107 65L107 64M102 65L103 65L103 67L99 67M99 67L99 68L97 68L97 70M97 70L100 70M86 66L92 66L92 67M98 66L97 66L97 65M92 67L92 68L93 68L93 67L95 67L95 68L96 68L96 67L98 67L98 66M79 66L80 66L80 68L83 68M83 68L86 68L86 67L92 67M98 66L99 66L99 67M82 70L82 69L83 69L83 68M78 71L78 70L82 70M71 80L82 80L82 79L81 79L81 78L80 78L80 79L79 79L79 78L78 78L78 79L76 79L76 78L75 78L75 77L76 77L76 76L75 76L75 75L76 75L76 72L77 72L77 71L78 71M88 71L84 71L84 70L86 70L86 69L87 69L87 68L91 68L91 70M91 70L94 70L94 69L95 69L95 70L96 70M82 72L88 72L88 71M82 70L82 72M96 70L97 70M23 71L24 71L24 72L26 72M38 74L38 73L36 73L36 71M88 71L88 70L91 70M82 72L82 73L89 73L89 74L90 74L90 75L91 75L91 76L94 76L94 73L95 73L95 71L96 71L96 70M140 73L146 73L146 74M146 74L147 74M78 71L78 72L79 72L79 73L81 73L81 72L82 72M110 78L110 76L113 76M93 90L93 89L92 89L92 88L94 88L94 86L93 86L93 81L92 81L92 80L91 80L91 79L93 79L93 78L99 78L99 77L102 77L102 78L100 78L100 79L98 79L98 82L94 82L94 85L96 85L96 84L98 84L98 85L100 85L100 87L102 87L102 86L101 86L101 84L100 84L100 83L102 83L102 84L104 84L104 85L107 85M110 80L109 80L109 79L110 79L110 78M124 80L123 80L123 79L121 79L121 81L117 81L117 80L116 80L116 81L115 81L115 82L113 82M113 82L108 82L108 83L106 83L106 82L107 82L107 81L110 81L110 80M118 84L118 82L122 82L122 81L124 81L124 80M71 84L72 84L72 86L71 86L71 87L72 87L72 88L73 88L73 87L78 87L78 86L79 86L79 88L83 88L83 90M107 85L108 85L108 86L111 86L111 85L114 85L114 84L118 84M84 90L84 86L86 86L86 87L85 87L85 89L89 89L89 90M139 75L139 73M148 87L147 87L147 86L146 86L146 85L145 85L145 84L144 84L144 83L146 83L146 84L148 84L148 86L150 86L150 85L149 85L149 84L151 84L151 83L148 83L148 82L147 82L147 81L144 81L144 80L145 80L145 79L146 79L146 80L147 80L147 78L148 78L148 76L147 76L147 77L146 77L146 78L142 78L142 77L139 77L139 75M121 75L121 76L122 76L122 77L119 77L119 78M160 89L152 89L152 88L148 88L148 87M132 77L133 77L133 78L134 78L134 79L132 79L132 77M119 78L125 78L125 79L131 79L131 80L132 80L132 81M132 81L133 81L133 80L134 80L134 79L138 79L138 80L139 80L139 81L140 81L140 82L141 82L141 83L140 83L140 87M140 87L141 87L141 88L142 88L142 89L144 89L144 90M148 74L154 74M139 75L140 75L140 76L142 76L142 74L144 74L144 75L146 75L146 74M148 87L154 87L154 86L153 86L153 85L154 85L154 82L155 82L155 81L149 81L149 80L148 80L148 79L151 79L151 78L152 78L152 76L155 76L155 77L156 77L156 76L157 76L157 75M116 76L118 76L118 77L114 77L114 78M114 78L117 78L117 79M117 79L119 79L119 78M110 78L114 78M102 90L102 89L105 89L105 87L104 87L104 86L107 86L107 85M94 90L94 89L95 89L95 88L96 88L96 87L98 87L98 90M114 80L115 80L115 79L117 79M110 80L114 80M114 80L114 81L113 81L113 82M124 80L127 80L127 81L132 81M41 82L42 82L42 81L43 81L43 79M132 81L132 82L133 82L133 83L135 83L135 84L132 84L132 83L128 83L128 85L127 85L127 88L128 88L128 87L129 87L129 85L135 85L135 88L132 88L132 89L133 89L133 90M140 90L140 89L139 89L139 88L138 88L138 87L140 87M118 84L118 87L114 87L114 88L112 88L112 87L110 87L110 88L108 88L108 89L107 89L107 90M119 89L119 88L120 88L120 87L119 87L119 85L120 85L120 86L124 86L124 87M124 87L126 87L126 90M116 90L116 89L119 89M66 88L69 88L69 87L70 87L70 85L71 85L71 84M60 87L63 87L63 88L66 88M59 90L59 89L58 89L58 88M66 88L66 89L67 89L67 90M119 89L125 89L125 88L124 88L124 87"/>
  </g>
  <g id="callout-leaders" fill="#111" stroke="#111" stroke-width="0.08" stroke-linejoin="round" stroke-linecap="round">
    <path data-region-id="region-3" d="M61.5 4.5L63.833 4.5"/><circle data-region-id="region-3" cx="61.5" cy="4.5" r="0.12"/>
    <path data-region-id="region-5" d="M78.625 6.5L78.112 5.987"/><circle data-region-id="region-5" cx="78.625" cy="6.5" r="0.12"/>
    <path data-region-id="region-6" d="M124.625 5.5L124.112 6.013"/><circle data-region-id="region-6" cx="124.625" cy="5.5" r="0.12"/>
    <path data-region-id="region-12" d="M159.5 8.5L157.987 6.987"/><circle data-region-id="region-12" cx="159.5" cy="8.5" r="0.12"/>
    <path data-region-id="region-19" d="M93.5 15.5L93.167 15.5"/><circle data-region-id="region-19" cx="93.5" cy="15.5" r="0.12"/>
    <path data-region-id="region-41" d="M95.056 50.5L96.589 50.5"/><circle data-region-id="region-41" cx="95.056" cy="50.5" r="0.12"/>
    <path data-region-id="region-42" d="M99.5 51.5L99.5 52.833"/><circle data-region-id="region-42" cx="99.5" cy="51.5" r="0.12"/>
    <path data-region-id="region-47" d="M97.333 54.5L97.333 55.013"/><circle data-region-id="region-47" cx="97.333" cy="54.5" r="0.12"/>
    <path data-region-id="region-53" d="M93.5 55.5L94.033 56.033"/><circle data-region-id="region-53" cx="93.5" cy="55.5" r="0.12"/>
    <path data-region-id="region-60" d="M48 57.5L48 58.013"/><circle data-region-id="region-60" cx="48" cy="57.5" r="0.12"/>
    <path data-region-id="region-73" d="M109 64.5L109 64.167"/><circle data-region-id="region-73" cx="109" cy="64.5" r="0.12"/>
    <path data-region-id="region-88" d="M112.5 72.5L112.5 72.167"/><circle data-region-id="region-88" cx="112.5" cy="72.5" r="0.12"/>
    <path data-region-id="region-91" d="M16.278 74.5L16.278 74.833"/><circle data-region-id="region-91" cx="16.278" cy="74.5" r="0.12"/>
    <path data-region-id="region-99" d="M132.833 78.5L132.3 78.5"/><circle data-region-id="region-99" cx="132.833" cy="78.5" r="0.12"/>
    <path data-region-id="region-109" d="M51 82.5L51.533 82.5"/><circle data-region-id="region-109" cx="51" cy="82.5" r="0.12"/>
    <path data-region-id="region-116" d="M85.722 89.5L85.722 89.167"/><circle data-region-id="region-116" cx="85.722" cy="89.5" r="0.12"/>
    <path data-region-id="region-118" d="M96.389 88.5L97.922 88.5"/><circle data-region-id="region-118" cx="96.389" cy="88.5" r="0.12"/>
    <path data-region-id="region-119" d="M121 89.5L120.467 88.967"/><circle data-region-id="region-119" cx="121" cy="89.5" r="0.12"/>
  </g>
  <g id="callout-backgrounds">
    <rect data-region-id="region-3" x="63.833" y="3.827" width="1.707" height="1.347" fill="#fff"/>
    <rect data-region-id="region-5" x="76.585" y="4.64" width="1.707" height="1.347" fill="#fff"/>
    <rect data-region-id="region-6" x="122.585" y="6.013" width="1.707" height="1.347" fill="#fff"/>
    <rect data-region-id="region-12" x="156.46" y="5.64" width="1.707" height="1.347" fill="#fff"/>
    <rect data-region-id="region-19" x="91.46" y="14.827" width="1.707" height="1.347" fill="#fff"/>
    <rect data-region-id="region-41" x="96.589" y="49.827" width="0.947" height="1.347" fill="#fff"/>
    <rect data-region-id="region-42" x="99.027" y="52.833" width="0.947" height="1.347" fill="#fff"/>
    <rect data-region-id="region-47" x="96.48" y="55.013" width="1.707" height="1.347" fill="#fff"/>
    <rect data-region-id="region-53" x="94.033" y="55.833" width="0.947" height="1.347" fill="#fff"/>
    <rect data-region-id="region-60" x="47.147" y="58.013" width="1.707" height="1.347" fill="#fff"/>
    <rect data-region-id="region-73" x="108.527" y="62.82" width="0.947" height="1.347" fill="#fff"/>
    <rect data-region-id="region-88" x="112.027" y="70.82" width="0.947" height="1.347" fill="#fff"/>
    <rect data-region-id="region-91" x="15.804" y="74.833" width="0.947" height="1.347" fill="#fff"/>
    <rect data-region-id="region-99" x="131.353" y="77.827" width="0.947" height="1.347" fill="#fff"/>
    <rect data-region-id="region-109" x="51.533" y="81.827" width="0.947" height="1.347" fill="#fff"/>
    <rect data-region-id="region-116" x="85.249" y="87.82" width="0.947" height="1.347" fill="#fff"/>
    <rect data-region-id="region-118" x="97.922" y="87.827" width="0.947" height="1.347" fill="#fff"/>
    <rect data-region-id="region-119" x="119.52" y="87.82" width="0.947" height="1.347" fill="#fff"/>
  </g>
  <g id="labels" fill="none" stroke="#111" stroke-linecap="round" stroke-linejoin="round">
    <path data-region-id="region-1" aria-label="12" d="M10.233 8.6L10.233 9.867M10.233 10.133L10.233 11.4M11.1 8.333L12.433 8.333M12.767 8.6L12.767 9.867M12.433 11.667L11.1 11.667M10.767 11.4L10.767 10.133M11.1 10L12.433 10" stroke-width="0.267"><title>12</title></path>
    <path data-region-id="region-2" aria-label="16" d="M55.233 13.1L55.233 14.367M55.233 14.633L55.233 15.9M56.1 12.833L57.433 12.833M57.767 14.633L57.767 15.9M57.433 16.167L56.1 16.167M55.767 15.9L55.767 14.633M55.767 14.367L55.767 13.1M56.1 14.5L57.433 14.5" stroke-width="0.267"><title>16</title></path>
    <path data-region-id="region-4" aria-label="13" d="M72.872 4.326L72.872 4.936M72.872 5.064L72.872 5.674M73.289 4.198L73.931 4.198M74.091 4.326L74.091 4.936M74.091 5.064L74.091 5.674M73.931 5.802L73.289 5.802M73.289 5L73.931 5" stroke-width="0.128"><title>13</title></path>
    <path data-region-id="region-7" aria-label="13" d="M139.733 10.1L139.733 11.367M139.733 11.633L139.733 12.9M140.6 9.833L141.933 9.833M142.267 10.1L142.267 11.367M142.267 11.633L142.267 12.9M141.933 13.167L140.6 13.167M140.6 11.5L141.933 11.5" stroke-width="0.267"><title>13</title></path>
    <path data-region-id="region-8" aria-label="15" d="M154.793 8.411L154.793 9.396M154.793 9.604L154.793 10.589M155.467 8.204L156.504 8.204M156.763 9.604L156.763 10.589M156.504 10.796L155.467 10.796M155.207 9.396L155.207 8.411M155.467 9.5L156.504 9.5" stroke-width="0.207"><title>15</title></path>
    <path data-region-id="region-9" aria-label="15" d="M67.793 7.911L67.793 8.896M67.793 9.104L67.793 10.089M68.467 7.704L69.504 7.704M69.763 9.104L69.763 10.089M69.504 10.296L68.467 10.296M68.207 8.896L68.207 7.911M68.467 9L69.504 9" stroke-width="0.207"><title>15</title></path>
    <path data-region-id="region-10" aria-label="13" d="M81.348 6.703L81.348 7.424M81.348 7.576L81.348 8.297M81.842 6.551L82.601 6.551M82.791 6.703L82.791 7.424M82.791 7.576L82.791 8.297M82.601 8.449L81.842 8.449M81.842 7.5L82.601 7.5" stroke-width="0.152"><title>13</title></path>
    <path data-region-id="region-11" aria-label="13" d="M101.904 7.494L101.904 7.952M101.904 8.048L101.904 8.506M102.217 7.398L102.698 7.398M102.819 7.494L102.819 7.952M102.819 8.048L102.819 8.506M102.698 8.602L102.217 8.602M102.217 8L102.698 8" stroke-width="0.096"><title>13</title></path>
    <path data-region-id="region-13" aria-label="13" d="M116.793 10.911L116.793 11.896M116.793 12.104L116.793 13.089M117.467 10.704L118.504 10.704M118.763 10.911L118.763 11.896M118.763 12.104L118.763 13.089M118.504 13.296L117.467 13.296M117.467 12L118.504 12" stroke-width="0.207"><title>13</title></path>
    <path data-region-id="region-14" aria-label="15" d="M111.733 27.1L111.733 28.367M111.733 28.633L111.733 29.9M112.6 26.833L113.933 26.833M114.267 28.633L114.267 29.9M113.933 30.167L112.6 30.167M112.267 28.367L112.267 27.1M112.6 28.5L113.933 28.5" stroke-width="0.267"><title>15</title></path>
    <path data-region-id="region-15" aria-label="13" d="M86.372 15.326L86.372 15.936M86.372 16.064L86.372 16.674M86.789 15.198L87.431 15.198M87.591 15.326L87.591 15.936M87.591 16.064L87.591 16.674M87.431 16.802L86.789 16.802M86.789 16L87.431 16" stroke-width="0.128"><title>13</title></path>
    <path data-region-id="region-16" aria-label="16" d="M151.793 12.911L151.793 13.896M151.793 14.104L151.793 15.089M152.467 12.704L153.504 12.704M153.763 14.104L153.763 15.089M153.504 15.296L152.467 15.296M152.207 15.089L152.207 14.104M152.207 13.896L152.207 12.911M152.467 14L153.504 14" stroke-width="0.207"><title>16</title></path>
    <path data-region-id="region-17" aria-label="13" d="M68.793 32.411L68.793 33.396M68.793 33.604L68.793 34.589M69.467 32.204L70.504 32.204M70.763 32.411L70.763 33.396M70.763 33.604L70.763 34.589M70.504 34.796L69.467 34.796M69.467 33.5L70.504 33.5" stroke-width="0.207"><title>13</title></path>
    <path data-region-id="region-18" aria-label="16" d="M78.733 27.6L78.733 28.867M78.733 29.133L78.733 30.4M79.6 27.333L80.933 27.333M81.267 29.133L81.267 30.4M80.933 30.667L79.6 30.667M79.267 30.4L79.267 29.133M79.267 28.867L79.267 27.6M79.6 29L80.933 29" stroke-width="0.267"><title>16</title></path>
    <path data-region-id="region-20" aria-label="15" d="M145.872 15.326L145.872 15.936M145.872 16.064L145.872 16.674M146.289 15.198L146.931 15.198M147.091 16.064L147.091 16.674M146.931 16.802L146.289 16.802M146.128 15.936L146.128 15.326M146.289 16L146.931 16" stroke-width="0.128"><title>15</title></path>
    <path data-region-id="region-21" aria-label="13" d="M112.904 16.994L112.904 17.452M112.904 17.548L112.904 18.006M113.217 16.898L113.698 16.898M113.819 16.994L113.819 17.452M113.819 17.548L113.819 18.006M113.698 18.102L113.217 18.102M113.217 17.5L113.698 17.5" stroke-width="0.096"><title>13</title></path>
    <path data-region-id="region-22" aria-label="14" d="M152.348 19.203L152.348 19.924M152.348 20.076L152.348 20.797M153.791 19.203L153.791 19.924M153.791 20.076L153.791 20.797M152.652 19.924L152.652 19.203M152.842 20L153.601 20" stroke-width="0.152"><title>14</title></path>
    <path data-region-id="region-23" aria-label="15" d="M156.733 22.1L156.733 23.367M156.733 23.633L156.733 24.9M157.6 21.833L158.933 21.833M159.267 23.633L159.267 24.9M158.933 25.167L157.6 25.167M157.267 23.367L157.267 22.1M157.6 23.5L158.933 23.5" stroke-width="0.267"><title>15</title></path>
    <path data-region-id="region-24" aria-label="12" d="M30.872 22.326L30.872 22.936M30.872 23.064L30.872 23.674M31.289 22.198L31.931 22.198M32.091 22.326L32.091 22.936M31.931 23.802L31.289 23.802M31.128 23.674L31.128 23.064M31.289 23L31.931 23" stroke-width="0.128"><title>12</title></path>
    <path data-region-id="region-25" aria-label="16" d="M100.733 24.1L100.733 25.367M100.733 25.633L100.733 26.9M101.6 23.833L102.933 23.833M103.267 25.633L103.267 26.9M102.933 27.167L101.6 27.167M101.267 26.9L101.267 25.633M101.267 25.367L101.267 24.1M101.6 25.5L102.933 25.5" stroke-width="0.267"><title>16</title></path>
    <path data-region-id="region-26" aria-label="13" d="M29.733 36.6L29.733 37.867M29.733 38.133L29.733 39.4M30.6 36.333L31.933 36.333M32.267 36.6L32.267 37.867M32.267 38.133L32.267 39.4M31.933 39.667L30.6 39.667M30.6 38L31.933 38" stroke-width="0.267"><title>13</title></path>
    <path data-region-id="region-27" aria-label="13" d="M91.348 33.703L91.348 34.424M91.348 34.576L91.348 35.297M91.842 33.551L92.601 33.551M92.791 33.703L92.791 34.424M92.791 34.576L92.791 35.297M92.601 35.449L91.842 35.449M91.842 34.5L92.601 34.5" stroke-width="0.152"><title>13</title></path>
    <path data-region-id="region-28" aria-label="15" d="M48.233 40.6L48.233 41.867M48.233 42.133L48.233 43.4M49.1 40.333L50.433 40.333M50.767 42.133L50.767 43.4M50.433 43.667L49.1 43.667M48.767 41.867L48.767 40.6M49.1 42L50.433 42" stroke-width="0.267"><title>15</title></path>
    <path data-region-id="region-29" aria-label="14" d="M116.233 46.6L116.233 47.867M116.233 48.133L116.233 49.4M118.767 46.6L118.767 47.867M118.767 48.133L118.767 49.4M116.767 47.867L116.767 46.6M117.1 48L118.433 48" stroke-width="0.267"><title>14</title></path>
    <path data-region-id="region-30" aria-label="15" d="M71.237 39.619L71.237 40.869M71.237 41.131L71.237 42.381M72.092 39.356L73.406 39.356M73.735 41.131L73.735 42.381M73.406 42.644L72.092 42.644M71.763 40.869L71.763 39.619M72.092 41L73.406 41" stroke-width="0.263"><title>15</title></path>
    <path data-region-id="region-31" aria-label="10" d="M73.904 34.494L73.904 34.952M73.904 35.048L73.904 35.506M74.217 34.398L74.698 34.398M74.819 34.494L74.819 34.952M74.819 35.048L74.819 35.506M74.698 35.602L74.217 35.602M74.096 35.506L74.096 35.048M74.096 34.952L74.096 34.494" stroke-width="0.096"><title>10</title></path>
    <path data-region-id="region-32" aria-label="15" d="M84.233 41.6L84.233 42.867M84.233 43.133L84.233 44.4M85.1 41.333L86.433 41.333M86.767 43.133L86.767 44.4M86.433 44.667L85.1 44.667M84.767 42.867L84.767 41.6M85.1 43L86.433 43" stroke-width="0.267"><title>15</title></path>
    <path data-region-id="region-33" aria-label="15" d="M94.348 42.703L94.348 43.424M94.348 43.576L94.348 44.297M94.842 42.551L95.601 42.551M95.791 43.576L95.791 44.297M95.601 44.449L94.842 44.449M94.652 43.424L94.652 42.703M94.842 43.5L95.601 43.5" stroke-width="0.152"><title>15</title></path>
    <path data-region-id="region-34" aria-label="11" d="M150.733 44.1L150.733 45.367M150.733 45.633L150.733 46.9M153.267 44.1L153.267 45.367M153.267 45.633L153.267 46.9" stroke-width="0.267"><title>11</title></path>
    <path data-region-id="region-35" aria-label="9" d="M11.833 49.833L13.167 49.833M13.5 50.1L13.5 51.367M13.5 51.633L13.5 52.9M13.167 53.167L11.833 53.167M11.5 51.367L11.5 50.1M11.833 51.5L13.167 51.5" stroke-width="0.267"><title>9</title></path>
    <path data-region-id="region-36" aria-label="7" d="M76.49 46.725L77.51 46.725M77.765 46.929L77.765 47.898M77.765 48.102L77.765 49.071" stroke-width="0.204"><title>7</title></path>
    <path data-region-id="region-37" aria-label="13" d="M66.872 43.326L66.872 43.936M66.872 44.064L66.872 44.674M67.289 43.198L67.931 43.198M68.091 43.326L68.091 43.936M68.091 44.064L68.091 44.674M67.931 44.802L67.289 44.802M67.289 44L67.931 44" stroke-width="0.128"><title>13</title></path>
    <path data-region-id="region-38" aria-label="14" d="M67.733 59.6L67.733 60.867M67.733 61.133L67.733 62.4M70.267 59.6L70.267 60.867M70.267 61.133L70.267 62.4M68.267 60.867L68.267 59.6M68.6 61L69.933 61" stroke-width="0.267"><title>14</title></path>
    <path data-region-id="region-39" aria-label="10" d="M72.372 48.326L72.372 48.936M72.372 49.064L72.372 49.674M72.789 48.198L73.431 48.198M73.591 48.326L73.591 48.936M73.591 49.064L73.591 49.674M73.431 49.802L72.789 49.802M72.628 49.674L72.628 49.064M72.628 48.936L72.628 48.326" stroke-width="0.128"><title>10</title></path>
    <path data-region-id="region-40" aria-label="8" d="M72.494 50.235L73.506 50.235M73.759 50.437L73.759 51.399M73.759 51.601L73.759 52.563M73.506 52.765L72.494 52.765M72.241 52.563L72.241 51.601M72.241 51.399L72.241 50.437M72.494 51.5L73.506 51.5" stroke-width="0.202"><title>8</title></path>
    <path data-region-id="region-43" aria-label="14" d="M86.233 51.1L86.233 52.367M86.233 52.633L86.233 53.9M88.767 51.1L88.767 52.367M88.767 52.633L88.767 53.9M86.767 52.367L86.767 51.1M87.1 52.5L88.433 52.5" stroke-width="0.267"><title>14</title></path>
    <path data-region-id="region-44" aria-label="9" d="M101.494 51.235L102.506 51.235M102.759 51.437L102.759 52.399M102.759 52.601L102.759 53.563M102.506 53.765L101.494 53.765M101.241 52.399L101.241 51.437M101.494 52.5L102.506 52.5" stroke-width="0.202"><title>9</title></path>
    <path data-region-id="region-45" aria-label="11" d="M94.904 52.494L94.904 52.952M94.904 53.048L94.904 53.506M95.819 52.494L95.819 52.952M95.819 53.048L95.819 53.506" stroke-width="0.096"><title>11</title></path>
    <path data-region-id="region-46" aria-label="11" d="M42.904 54.994L42.904 55.452M42.904 55.548L42.904 56.006M43.819 54.994L43.819 55.452M43.819 55.548L43.819 56.006" stroke-width="0.096"><title>11</title></path>
    <path data-region-id="region-48" aria-label="4" d="M102.481 54.326L102.481 54.936M102.481 55.064L102.481 55.674M101.519 54.936L101.519 54.326M101.679 55L102.321 55" stroke-width="0.128"><title>4</title></path>
    <path data-region-id="region-49" aria-label="8" d="M113.833 65.833L115.167 65.833M115.5 66.1L115.5 67.367M115.5 67.633L115.5 68.9M115.167 69.167L113.833 69.167M113.5 68.9L113.5 67.633M113.5 67.367L113.5 66.1M113.833 67.5L115.167 67.5" stroke-width="0.267"><title>8</title></path>
    <path data-region-id="region-50" aria-label="5" d="M153.333 58.333L154.667 58.333M155 60.133L155 61.4M154.667 61.667L153.333 61.667M153 59.867L153 58.6M153.333 60L154.667 60" stroke-width="0.267"><title>5</title></path>
    <path data-region-id="region-51" aria-label="11" d="M81.348 59.703L81.348 60.424M81.348 60.576L81.348 61.297M82.791 59.703L82.791 60.424M82.791 60.576L82.791 61.297" stroke-width="0.152"><title>11</title></path>
    <path data-region-id="region-52" aria-label="2" d="M86.679 57.198L87.321 57.198M87.481 57.326L87.481 57.936M87.321 58.802L86.679 58.802M86.519 58.674L86.519 58.064M86.679 58L87.321 58" stroke-width="0.128"><title>2</title></path>
    <path data-region-id="region-54" aria-label="4" d="M77.981 56.326L77.981 56.936M77.981 57.064L77.981 57.674M77.019 56.936L77.019 56.326M77.179 57L77.821 57" stroke-width="0.128"><title>4</title></path>
    <path data-region-id="region-55" aria-label="1" d="M83.481 56.326L83.481 56.936M83.481 57.064L83.481 57.674" stroke-width="0.128"><title>1</title></path>
    <path data-region-id="region-56" aria-label="1" d="M93.259 56.437L93.259 57.399M93.259 57.601L93.259 58.563" stroke-width="0.202"><title>1</title></path>
    <path data-region-id="region-57" aria-label="2" d="M97.494 57.235L98.506 57.235M98.759 57.437L98.759 58.399M98.506 59.765L97.494 59.765M97.241 59.563L97.241 58.601M97.494 58.5L98.506 58.5" stroke-width="0.202"><title>2</title></path>
    <path data-region-id="region-58" aria-label="5" d="M102.833 57.833L104.167 57.833M104.5 59.633L104.5 60.9M104.167 61.167L102.833 61.167M102.5 59.367L102.5 58.1M102.833 59.5L104.167 59.5" stroke-width="0.267"><title>5</title></path>
    <path data-region-id="region-59" aria-label="4" d="M43.5 57.6L43.5 58.867M43.5 59.133L43.5 60.4M41.5 58.867L41.5 57.6M41.833 59L43.167 59" stroke-width="0.267"><title>4</title></path>
    <path data-region-id="region-61" aria-label="2" d="M36.679 58.198L37.321 58.198M37.481 58.326L37.481 58.936M37.321 59.802L36.679 59.802M36.519 59.674L36.519 59.064M36.679 59L37.321 59" stroke-width="0.128"><title>2</title></path>
    <path data-region-id="region-62" aria-label="5" d="M53.994 58.235L55.006 58.235M55.259 59.601L55.259 60.563M55.006 60.765L53.994 60.765M53.741 59.399L53.741 58.437M53.994 59.5L55.006 59.5" stroke-width="0.202"><title>5</title></path>
    <path data-region-id="region-63" aria-label="4" d="M94.481 59.326L94.481 59.936M94.481 60.064L94.481 60.674M93.519 59.936L93.519 59.326M93.679 60L94.321 60" stroke-width="0.128"><title>4</title></path>
    <path data-region-id="region-64" aria-label="6" d="M6.333 69.833L7.667 69.833M8 71.633L8 72.9M7.667 73.167L6.333 73.167M6 72.9L6 71.633M6 71.367L6 70.1M6.333 71.5L7.667 71.5" stroke-width="0.267"><title>6</title></path>
    <path data-region-id="region-65" aria-label="5" d="M86.179 59.198L86.821 59.198M86.981 60.064L86.981 60.674M86.821 60.802L86.179 60.802M86.019 59.936L86.019 59.326M86.179 60L86.821 60" stroke-width="0.128"><title>5</title></path>
    <path data-region-id="region-66" aria-label="2" d="M88.994 62.235L90.006 62.235M90.259 62.437L90.259 63.399M90.006 64.765L88.994 64.765M88.741 64.563L88.741 63.601M88.994 63.5L90.006 63.5" stroke-width="0.202"><title>2</title></path>
    <path data-region-id="region-67" aria-label="11" d="M118.904 60.494L118.904 60.952M118.904 61.048L118.904 61.506M119.819 60.494L119.819 60.952M119.819 61.048L119.819 61.506" stroke-width="0.096"><title>11</title></path>
    <path data-region-id="region-68" aria-label="11" d="M41.733 64.6L41.733 65.867M41.733 66.133L41.733 67.4M44.267 64.6L44.267 65.867M44.267 66.133L44.267 67.4" stroke-width="0.267"><title>11</title></path>
    <path data-region-id="region-69" aria-label="1" d="M101.481 62.326L101.481 62.936M101.481 63.064L101.481 63.674" stroke-width="0.128"><title>1</title></path>
    <path data-region-id="region-70" aria-label="4" d="M105.759 64.437L105.759 65.399M105.759 65.601L105.759 66.563M104.241 65.399L104.241 64.437M104.494 65.5L105.506 65.5" stroke-width="0.202"><title>4</title></path>
    <path data-region-id="region-71" aria-label="9" d="M114.679 62.198L115.321 62.198M115.481 62.326L115.481 62.936M115.481 63.064L115.481 63.674M115.321 63.802L114.679 63.802M114.519 62.936L114.519 62.326M114.679 63L115.321 63" stroke-width="0.128"><title>9</title></path>
    <path data-region-id="region-72" aria-label="9" d="M94.179 65.198L94.821 65.198M94.981 65.326L94.981 65.936M94.981 66.064L94.981 66.674M94.821 66.802L94.179 66.802M94.019 65.936L94.019 65.326M94.179 66L94.821 66" stroke-width="0.128"><title>9</title></path>
    <path data-region-id="region-74" aria-label="13" d="M81.798 65.437L81.798 66.399M81.798 66.601L81.798 67.563M82.456 65.235L83.468 65.235M83.721 65.437L83.721 66.399M83.721 66.601L83.721 67.563M83.468 67.765L82.456 67.765M82.456 66.5L83.468 66.5" stroke-width="0.202"><title>13</title></path>
    <path data-region-id="region-75" aria-label="6" d="M100.679 65.198L101.321 65.198M101.481 66.064L101.481 66.674M101.321 66.802L100.679 66.802M100.519 66.674L100.519 66.064M100.519 65.936L100.519 65.326M100.679 66L101.321 66" stroke-width="0.128"><title>6</title></path>
    <path data-region-id="region-76" aria-label="4" d="M150.759 65.437L150.759 66.399M150.759 66.601L150.759 67.563M149.241 66.399L149.241 65.437M149.494 66.5L150.506 66.5" stroke-width="0.202"><title>4</title></path>
    <path data-region-id="region-77" aria-label="8" d="M72.333 69.833L73.667 69.833M74 70.1L74 71.367M74 71.633L74 72.9M73.667 73.167L72.333 73.167M72 72.9L72 71.633M72 71.367L72 70.1M72.333 71.5L73.667 71.5" stroke-width="0.267"><title>8</title></path>
    <path data-region-id="region-78" aria-label="3" d="M92.179 68.198L92.821 68.198M92.981 68.326L92.981 68.936M92.981 69.064L92.981 69.674M92.821 69.802L92.179 69.802M92.179 69L92.821 69" stroke-width="0.128"><title>3</title></path>
    <path data-region-id="region-79" aria-label="4" d="M134.759 66.437L134.759 67.399M134.759 67.601L134.759 68.563M133.241 67.399L133.241 66.437M133.494 67.5L134.506 67.5" stroke-width="0.202"><title>4</title></path>
    <path data-region-id="region-80" aria-label="5" d="M32.994 71.235L34.006 71.235M34.259 72.601L34.259 73.563M34.006 73.765L32.994 73.765M32.741 72.399L32.741 71.437M32.994 72.5L34.006 72.5" stroke-width="0.202"><title>5</title></path>
    <path data-region-id="region-81" aria-label="1" d="M89.481 68.326L89.481 68.936M89.481 69.064L89.481 69.674" stroke-width="0.128"><title>1</title></path>
    <path data-region-id="region-82" aria-label="4" d="M92.5 70.6L92.5 71.867M92.5 72.133L92.5 73.4M90.5 71.867L90.5 70.6M90.833 72L92.167 72" stroke-width="0.267"><title>4</title></path>
    <path data-region-id="region-83" aria-label="4" d="M142.481 69.326L142.481 69.936M142.481 70.064L142.481 70.674M141.519 69.936L141.519 69.326M141.679 70L142.321 70" stroke-width="0.128"><title>4</title></path>
    <path data-region-id="region-84" aria-label="3" d="M21.679 71.198L22.321 71.198M22.481 71.326L22.481 71.936M22.481 72.064L22.481 72.674M22.321 72.802L21.679 72.802M21.679 72L22.321 72" stroke-width="0.128"><title>3</title></path>
    <path data-region-id="region-85" aria-label="4" d="M80.481 70.326L80.481 70.936M80.481 71.064L80.481 71.674M79.519 70.936L79.519 70.326M79.679 71L80.321 71" stroke-width="0.128"><title>4</title></path>
    <path data-region-id="region-86" aria-label="5" d="M85.833 78.833L87.167 78.833M87.5 80.633L87.5 81.9M87.167 82.167L85.833 82.167M85.5 80.367L85.5 79.1M85.833 80.5L87.167 80.5" stroke-width="0.267"><title>5</title></path>
    <path data-region-id="region-87" aria-label="8" d="M37.679 71.198L38.321 71.198M38.481 71.326L38.481 71.936M38.481 72.064L38.481 72.674M38.321 72.802L37.679 72.802M37.519 72.674L37.519 72.064M37.519 71.936L37.519 71.326M37.679 72L38.321 72" stroke-width="0.128"><title>8</title></path>
    <path data-region-id="region-89" aria-label="4" d="M137.5 75.6L137.5 76.867M137.5 77.133L137.5 78.4M135.5 76.867L135.5 75.6M135.833 77L137.167 77" stroke-width="0.267"><title>4</title></path>
    <path data-region-id="region-90" aria-label="4" d="M152.481 72.326L152.481 72.936M152.481 73.064L152.481 73.674M151.519 72.936L151.519 72.326M151.679 73L152.321 73" stroke-width="0.128"><title>4</title></path>
    <path data-region-id="region-92" aria-label="1" d="M141.759 73.437L141.759 74.399M141.759 74.601L141.759 75.563" stroke-width="0.202"><title>1</title></path>
    <path data-region-id="region-93" aria-label="3" d="M149.333 74.333L150.667 74.333M151 74.6L151 75.867M151 76.133L151 77.4M150.667 77.667L149.333 77.667M149.333 76L150.667 76" stroke-width="0.267"><title>3</title></path>
    <path data-region-id="region-94" aria-label="8" d="M50.679 77.198L51.321 77.198M51.481 77.326L51.481 77.936M51.481 78.064L51.481 78.674M51.321 78.802L50.679 78.802M50.519 78.674L50.519 78.064M50.519 77.936L50.519 77.326M50.679 78L51.321 78" stroke-width="0.128"><title>8</title></path>
    <path data-region-id="region-95" aria-label="5" d="M119.179 75.198L119.821 75.198M119.981 76.064L119.981 76.674M119.821 76.802L119.179 76.802M119.019 75.936L119.019 75.326M119.179 76L119.821 76" stroke-width="0.128"><title>5</title></path>
    <path data-region-id="region-96" aria-label="1" d="M158 84.1L158 85.367M158 85.633L158 86.9" stroke-width="0.267"><title>1</title></path>
    <path data-region-id="region-97" aria-label="4" d="M112.481 76.326L112.481 76.936M112.481 77.064L112.481 77.674M111.519 76.936L111.519 76.326M111.679 77L112.321 77" stroke-width="0.128"><title>4</title></path>
    <path data-region-id="region-98" aria-label="4" d="M96.5 78.6L96.5 79.867M96.5 80.133L96.5 81.4M94.5 79.867L94.5 78.6M94.833 80L96.167 80" stroke-width="0.267"><title>4</title></path>
    <path data-region-id="region-100" aria-label="8" d="M112.179 78.198L112.821 78.198M112.981 78.326L112.981 78.936M112.981 79.064L112.981 79.674M112.821 79.802L112.179 79.802M112.019 79.674L112.019 79.064M112.019 78.936L112.019 78.326M112.179 79L112.821 79" stroke-width="0.128"><title>8</title></path>
    <path data-region-id="region-101" aria-label="3" d="M118.679 79.198L119.321 79.198M119.481 79.326L119.481 79.936M119.481 80.064L119.481 80.674M119.321 80.802L118.679 80.802M118.679 80L119.321 80" stroke-width="0.128"><title>3</title></path>
    <path data-region-id="region-102" aria-label="8" d="M40.494 79.235L41.506 79.235M41.759 79.437L41.759 80.399M41.759 80.601L41.759 81.563M41.506 81.765L40.494 81.765M40.241 81.563L40.241 80.601M40.241 80.399L40.241 79.437M40.494 80.5L41.506 80.5" stroke-width="0.202"><title>8</title></path>
    <path data-region-id="region-103" aria-label="5" d="M43.494 79.235L44.506 79.235M44.759 80.601L44.759 81.563M44.506 81.765L43.494 81.765M43.241 80.399L43.241 79.437M43.494 80.5L44.506 80.5" stroke-width="0.202"><title>5</title></path>
    <path data-region-id="region-104" aria-label="3" d="M136.833 82.333L138.167 82.333M138.5 82.6L138.5 83.867M138.5 84.133L138.5 85.4M138.167 85.667L136.833 85.667M136.833 84L138.167 84" stroke-width="0.267"><title>3</title></path>
    <path data-region-id="region-105" aria-label="3" d="M27.494 81.235L28.506 81.235M28.759 81.437L28.759 82.399M28.759 82.601L28.759 83.563M28.506 83.765L27.494 83.765M27.494 82.5L28.506 82.5" stroke-width="0.202"><title>3</title></path>
    <path data-region-id="region-106" aria-label="4" d="M111.981 80.326L111.981 80.936M111.981 81.064L111.981 81.674M111.019 80.936L111.019 80.326M111.179 81L111.821 81" stroke-width="0.128"><title>4</title></path>
    <path data-region-id="region-107" aria-label="4" d="M125.5 82.1L125.5 83.367M125.5 83.633L125.5 84.9M123.5 83.367L123.5 82.1M123.833 83.5L125.167 83.5" stroke-width="0.267"><title>4</title></path>
    <path data-region-id="region-108" aria-label="3" d="M2.833 83.333L4.167 83.333M4.5 83.6L4.5 84.867M4.5 85.133L4.5 86.4M4.167 86.667L2.833 86.667M2.833 85L4.167 85" stroke-width="0.267"><title>3</title></path>
    <path data-region-id="region-110" aria-label="5" d="M65.494 85.235L66.506 85.235M66.759 86.601L66.759 87.563M66.506 87.765L65.494 87.765M65.241 86.399L65.241 85.437M65.494 86.5L66.506 86.5" stroke-width="0.202"><title>5</title></path>
    <path data-region-id="region-111" aria-label="5" d="M53.333 86.333L54.667 86.333M55 88.133L55 89.4M54.667 89.667L53.333 89.667M53 87.867L53 86.6M53.333 88L54.667 88" stroke-width="0.267"><title>5</title></path>
    <path data-region-id="region-112" aria-label="4" d="M76.759 87.437L76.759 88.399M76.759 88.601L76.759 89.563M75.241 88.399L75.241 87.437M75.494 88.5L76.506 88.5" stroke-width="0.202"><title>4</title></path>
    <path data-region-id="region-113" aria-label="3" d="M115.494 84.235L116.506 84.235M116.759 84.437L116.759 85.399M116.759 85.601L116.759 86.563M116.506 86.765L115.494 86.765M115.494 85.5L116.506 85.5" stroke-width="0.202"><title>3</title></path>
    <path data-region-id="region-114" aria-label="1" d="M122.759 86.437L122.759 87.399M122.759 87.601L122.759 88.563" stroke-width="0.202"><title>1</title></path>
    <path data-region-id="region-115" aria-label="3" d="M13.994 87.235L15.006 87.235M15.259 87.437L15.259 88.399M15.259 88.601L15.259 89.563M15.006 89.765L13.994 89.765M13.994 88.5L15.006 88.5" stroke-width="0.202"><title>3</title></path>
    <path data-region-id="region-117" aria-label="6" d="M60.994 87.235L62.006 87.235M62.259 88.601L62.259 89.563M62.006 89.765L60.994 89.765M60.741 89.563L60.741 88.601M60.741 88.399L60.741 87.437M60.994 88.5L62.006 88.5" stroke-width="0.202"><title>6</title></path>
    <path data-region-id="region-120" aria-label="1" d="M141.481 88.326L141.481 88.936M141.481 89.064L141.481 89.674" stroke-width="0.128"><title>1</title></path>
  </g>
  <g id="callout-labels" fill="none" stroke="#111" stroke-linecap="round" stroke-linejoin="round">
    <path data-region-id="region-3" aria-label="15" d="M64.607 4.08L64.607 4.46M64.607 4.54L64.607 4.92M64.867 4L65.267 4M65.367 4.54L65.367 4.92M65.267 5L64.867 5M64.767 4.46L64.767 4.08M64.867 4.5L65.267 4.5" stroke-width="0.08"><title>15</title></path>
    <path data-region-id="region-5" aria-label="15" d="M77.358 4.893L77.358 5.273M77.358 5.353L77.358 5.733M77.618 4.813L78.018 4.813M78.118 5.353L78.118 5.733M78.018 5.813L77.618 5.813M77.518 5.273L77.518 4.893M77.618 5.313L78.018 5.313" stroke-width="0.08"><title>15</title></path>
    <path data-region-id="region-6" aria-label="13" d="M123.358 6.267L123.358 6.647M123.358 6.727L123.358 7.107M123.618 6.187L124.018 6.187M124.118 6.267L124.118 6.647M124.118 6.727L124.118 7.107M124.018 7.187L123.618 7.187M123.618 6.687L124.018 6.687" stroke-width="0.08"><title>13</title></path>
    <path data-region-id="region-12" aria-label="14" d="M157.233 5.893L157.233 6.273M157.233 6.353L157.233 6.733M157.993 5.893L157.993 6.273M157.993 6.353L157.993 6.733M157.393 6.273L157.393 5.893M157.493 6.313L157.893 6.313" stroke-width="0.08"><title>14</title></path>
    <path data-region-id="region-19" aria-label="16" d="M92.233 15.08L92.233 15.46M92.233 15.54L92.233 15.92M92.493 15L92.893 15M92.993 15.54L92.993 15.92M92.893 16L92.493 16M92.393 15.92L92.393 15.54M92.393 15.46L92.393 15.08M92.493 15.5L92.893 15.5" stroke-width="0.08"><title>16</title></path>
    <path data-region-id="region-41" aria-label="7" d="M96.862 50L97.262 50M97.362 50.08L97.362 50.46M97.362 50.54L97.362 50.92" stroke-width="0.08"><title>7</title></path>
    <path data-region-id="region-42" aria-label="4" d="M99.8 53.087L99.8 53.467M99.8 53.547L99.8 53.927M99.2 53.467L99.2 53.087M99.3 53.507L99.7 53.507" stroke-width="0.08"><title>4</title></path>
    <path data-region-id="region-47" aria-label="13" d="M97.253 55.267L97.253 55.647M97.253 55.727L97.253 56.107M97.513 55.187L97.913 55.187M98.013 55.267L98.013 55.647M98.013 55.727L98.013 56.107M97.913 56.187L97.513 56.187M97.513 55.687L97.913 55.687" stroke-width="0.08"><title>13</title></path>
    <path data-region-id="region-53" aria-label="4" d="M94.807 56.087L94.807 56.467M94.807 56.547L94.807 56.927M94.207 56.467L94.207 56.087M94.307 56.507L94.707 56.507" stroke-width="0.08"><title>4</title></path>
    <path data-region-id="region-60" aria-label="11" d="M47.92 58.267L47.92 58.647M47.92 58.727L47.92 59.107M48.68 58.267L48.68 58.647M48.68 58.727L48.68 59.107" stroke-width="0.08"><title>11</title></path>
    <path data-region-id="region-73" aria-label="9" d="M108.8 62.993L109.2 62.993M109.3 63.073L109.3 63.453M109.3 63.533L109.3 63.913M109.2 63.993L108.8 63.993M108.7 63.453L108.7 63.073M108.8 63.493L109.2 63.493" stroke-width="0.08"><title>9</title></path>
    <path data-region-id="region-88" aria-label="5" d="M112.3 70.993L112.7 70.993M112.8 71.533L112.8 71.913M112.7 71.993L112.3 71.993M112.2 71.453L112.2 71.073M112.3 71.493L112.7 71.493" stroke-width="0.08"><title>5</title></path>
    <path data-region-id="region-91" aria-label="3" d="M16.078 75.007L16.478 75.007M16.578 75.087L16.578 75.467M16.578 75.547L16.578 75.927M16.478 76.007L16.078 76.007M16.078 75.507L16.478 75.507" stroke-width="0.08"><title>3</title></path>
    <path data-region-id="region-99" aria-label="1" d="M132.127 78.08L132.127 78.46M132.127 78.54L132.127 78.92" stroke-width="0.08"><title>1</title></path>
    <path data-region-id="region-109" aria-label="6" d="M51.807 82L52.207 82M52.307 82.54L52.307 82.92M52.207 83L51.807 83M51.707 82.92L51.707 82.54M51.707 82.46L51.707 82.08M51.807 82.5L52.207 82.5" stroke-width="0.08"><title>6</title></path>
    <path data-region-id="region-116" aria-label="8" d="M85.522 87.993L85.922 87.993M86.022 88.073L86.022 88.453M86.022 88.533L86.022 88.913M85.922 88.993L85.522 88.993M85.422 88.913L85.422 88.533M85.422 88.453L85.422 88.073M85.522 88.493L85.922 88.493" stroke-width="0.08"><title>8</title></path>
    <path data-region-id="region-118" aria-label="3" d="M98.196 88L98.596 88M98.696 88.08L98.696 88.46M98.696 88.54L98.696 88.92M98.596 89L98.196 89M98.196 88.5L98.596 88.5" stroke-width="0.08"><title>3</title></path>
    <path data-region-id="region-119" aria-label="3" d="M119.793 87.993L120.193 87.993M120.293 88.073L120.293 88.453M120.293 88.533L120.293 88.913M120.193 88.993L119.793 88.993M119.793 88.493L120.193 88.493" stroke-width="0.08"><title>3</title></path>
  </g>
</svg>